<svg xmlns="http://www.w3.org/2000/svg" width="314.02" height="79.03" viewBox="0 0 314.02 79.03"><path d="M49.77-5.88q0,2.73-3.71,3.64-.21,0-.21-.28t.49-.63a2.931,2.931,0,0,0,1.4-2.31q0-2.45-3.92-3.57A38.963,38.963,0,0,1,29.435,1.54Q20.23,5.74,13.09,5.74T5.95,2.8q0-2.45,4.865-5.845a49.034,49.034,0,0,1,12.53-5.95A45.786,45.786,0,0,1,37.8-11.55a28.913,28.913,0,0,1,5.74.49,16.167,16.167,0,0,0,2.17-8.05A4.963,4.963,0,0,0,43.54-23.2a9.385,9.385,0,0,0-5.81-1.645,16.8,16.8,0,0,0-6.93,1.47,2.188,2.188,0,0,1-1.12.49q-.77,0-.77-.385t1.05-.945q1.54-.49,5.915-3.78a57.709,57.709,0,0,0,8.54-8.015Q48.58-40.74,48.58-43.96q0-5.25-11.34-5.25a49.967,49.967,0,0,0-16.975,3.255A49,49,0,0,0,5.11-37.485Q-1.05-32.27-1.05-27.3q0,2.66,3.29,2.66a19.971,19.971,0,0,0,9.24-2.345,70.971,70.971,0,0,0,11.9-8.505q.91-1.05,1.26-1.05.77,0,.77.49a4.1,4.1,0,0,1-.49.98,59.53,59.53,0,0,1-5.11,4.41,69.762,69.762,0,0,1-6.09,4.34,39.1,39.1,0,0,1-6.335,3.15,17.6,17.6,0,0,1-6.4,1.4q-4.97,0-4.97-4.41,0-5.74,7.49-11.8a61.964,61.964,0,0,1,17.6-9.8Q31.22-51.52,39.2-51.52q12.67,0,12.67,6.23,0,4.55-6.055,10.745T34.93-26.04a21.432,21.432,0,0,1,4.06-.42,11.675,11.675,0,0,1,6.79,1.68,5.288,5.288,0,0,1,2.38,4.55,17.017,17.017,0,0,1-3.15,9.59Q49.77-9.24,49.77-5.88ZM37.03-9.87A38.573,38.573,0,0,0,24.99-7.63,51.176,51.176,0,0,0,13.755-2.52Q9.24.35,9.24,2.135T13.545,3.92A37.08,37.08,0,0,0,23,2.555,46.134,46.134,0,0,0,33.775-2,26.319,26.319,0,0,0,42.42-9.38,29.69,29.69,0,0,0,37.03-9.87Zm.77-34.86q0,.21-8.155,14.28T17.64-9.94a2.86,2.86,0,0,1-1.54,1.4,4.753,4.753,0,0,1-1.715.49q-.595,0-.6-.315t5.18-9.03Q24.15-26.11,29.3-34.72t5-8.68a2.552,2.552,0,0,1,1.4-1.05l1.75-.56ZM63.7-21.35a.928.928,0,0,1,1.05,1.05,3.233,3.233,0,0,1-.98,2.135A2.889,2.889,0,0,1,61.6-17.08q-.98,0-.98-1.365a2.45,2.45,0,0,1,1.12-2.135A3.629,3.629,0,0,1,63.7-21.35Zm-6.58,9.24a1.1,1.1,0,0,1,.98-.56,1.815,1.815,0,0,1,1.26.63q0,.28-.91,1.26A37.288,37.288,0,0,0,55.37-6.4Q53.2-3.01,53.2-1.89q0,.7,1.05.84a11.909,11.909,0,0,0,4.34-1.365A47.738,47.738,0,0,0,63.77-5.18l2.24-1.4a1.456,1.456,0,0,1,.07.56q0,.42-.63.7Q56,1.12,52.29,1.12A1.609,1.609,0,0,1,50.47-.7q0-1.82,1.995-5.075A48.387,48.387,0,0,1,57.12-12.11Zm7.35,7.42a1.18,1.18,0,0,1-.525.14q-.245,0-.245-.28a.672.672,0,0,1,.21-.49,27.841,27.841,0,0,0,6.3-5.25q-3.15-.98-3.15-2.765t2.38-3.99a6.859,6.859,0,0,1,4.48-2.2q1.4,0,1.4,1.68,0,2.59-2.59,5.53,3.36.56,3.36,1.61a2.348,2.348,0,0,1-1.225,2.135A12.572,12.572,0,0,0,72.03-5.95a5.852,5.852,0,0,0-1.61,3.78,1.2,1.2,0,0,0,.28.77,1.505,1.505,0,0,0,1.19.35,12.654,12.654,0,0,0,3.85-1.365A47.739,47.739,0,0,0,80.92-5.18l2.24-1.4a1.456,1.456,0,0,1,.07.56q0,.42-.63.7Q73.15,1.12,69.44,1.12A1.609,1.609,0,0,1,67.62-.7a5.8,5.8,0,0,1,1.015-3.08,11.643,11.643,0,0,1,2.24-2.66q1.225-1.05,2.24-1.995T74.13-9.66q0-.28-.875-.35a20.459,20.459,0,0,1-2.275-.35A31.242,31.242,0,0,1,64.47-4.69Zm4.34-9.73q0,1.4,3.08,1.96a6.622,6.622,0,0,0,1.82-3.885q0-1.645-1.05-1.645a4.019,4.019,0,0,0-2.45,1.225A3.327,3.327,0,0,0,68.81-14.42Zm30.1.42a4.352,4.352,0,0,1-1.82,3.01q-1.82,1.61-2.625,1.61T93.66-9.8l.49-.63q1.75-1.61,1.75-2.38,0-.98-1.05-.98-2.52.07-7,4.48T83.37-2.8q0,.91,1.015.91a6.821,6.821,0,0,0,2.835-.945A23.843,23.843,0,0,0,90.37-4.76l1.4-.98a4.972,4.972,0,0,0,.77-.84q1.54-1.89,2.03-1.89,1.12.14,1.12.98Q93.87-4.83,88.9,3.5a20.285,20.285,0,0,1,2.87-.21q3.36,0,3.36,1.75a4.3,4.3,0,0,1-1.295,2.485q-1.3,1.505-2,1.5t-.7-.49q0-.28.77-.875a1.766,1.766,0,0,0,.77-1.435q0-1.12-1.47-1.12a19.838,19.838,0,0,0-3.43.35q-3.08,5.32-4.865,8.3T78.47,20.44q-5.04,7.07-8.89,7.07a2.135,2.135,0,0,1-2.38-2.45q0-4.34,5.915-11.34A29.882,29.882,0,0,1,86.24,4.27l3.92-7.42a26.561,26.561,0,0,1-2.87,1.54Q83.37.28,81.83.28q-1.89,0-1.89-1.96T82.95-7a33.979,33.979,0,0,1,7.14-5.985q4.13-2.625,6.86-2.625a2.1,2.1,0,0,1,1.33.385A1.878,1.878,0,0,1,98.91-14ZM69.58,24.01q0,1.47,1.12,1.47,3.57,0,14.42-19.25a24.618,24.618,0,0,0-10.955,8.33Q69.58,20.51,69.58,24.01Zm41.86-45.36a.928.928,0,0,1,1.05,1.05,3.233,3.233,0,0,1-.98,2.135,2.889,2.889,0,0,1-2.17,1.085q-.98,0-.98-1.365a2.45,2.45,0,0,1,1.12-2.135A3.629,3.629,0,0,1,111.44-21.35Zm-6.58,9.24a1.1,1.1,0,0,1,.98-.56,1.815,1.815,0,0,1,1.26.63q0,.28-.91,1.26A37.289,37.289,0,0,0,103.11-6.4q-2.17,3.395-2.17,4.515,0,.7,1.05.84a11.909,11.909,0,0,0,4.34-1.365,47.739,47.739,0,0,0,5.18-2.765l2.24-1.4a1.456,1.456,0,0,1,.07.56q0,.42-.63.7-9.45,6.44-13.16,6.44A1.609,1.609,0,0,1,98.21-.7q0-1.82,1.995-5.075A48.387,48.387,0,0,1,104.86-12.11Zm8.4-10.99q4.76,0,9.38-.07,7.49-9.59,10.22-9.59.98,0,.98,1.05,0,3.36-4.9,8.4l5.32-.07q5.32-.21,6.51-.21t1.19.28q0,1.33-1.82,1.4l-13.16.56a80,80,0,0,1-8.47,6.79q-5.32,8.75-5.32,11.9,0,1.61,2.065,1.61T121.8-3.29l5.67-3.29a1.456,1.456,0,0,1,.07.56q0,.42-.63.7-2.24,1.54-4.9,3.08Q116.34.63,113.33.63a3.639,3.639,0,0,1-2.17-.56,1.784,1.784,0,0,1-.84-1.12l-.14-.56q0-2.38,3.22-8.015a111.369,111.369,0,0,1,7.63-11.515q-3.36.14-6.37.14t-3.01-.7Q111.65-23.03,113.26-23.1Zm18.41-7.14q0-.35-.28-.35-1.61,0-7.14,7.35h3.5Q131.67-27.51,131.67-30.24Zm-5.88,8.96q-2.24,0-3.01.07-.63.91-1.75,2.66t-1.54,2.38A72.266,72.266,0,0,0,125.79-21.28ZM174.23.84q1.26.7,1.26,1.26a1,1,0,0,1-.91,1.12h-.35q-3.92-.63-8.4-6.02-8.89,6.44-17.92,6.44A13.265,13.265,0,0,1,139.16.91a9.448,9.448,0,0,1-3.29-7.7q0-6.3,4.97-11.76a58.739,58.739,0,0,1,10.85-9.03q1.47-.98,4.06-2.66a27.943,27.943,0,0,1,1.61-8.68l.49-1.12a15.8,15.8,0,0,1,2.835-4.235,9.4,9.4,0,0,1,3.255-2.345,11.848,11.848,0,0,1,4.34-1.12,2.7,2.7,0,0,1,2.66,1.75,5.089,5.089,0,0,1,.35,2.17,7.689,7.689,0,0,1-1.015,3.43,15.882,15.882,0,0,1-3.22,4.06,49.027,49.027,0,0,1-4.1,3.535q-1.89,1.435-5.25,3.885a30.461,30.461,0,0,0,1.75,9.1,7.2,7.2,0,0,0,.28,1.05q5.67-3.29,10.15-3.29a8.339,8.339,0,0,1,2.59.49,4.062,4.062,0,0,1,2.87,4.27q0,6.72-7.56,12.95A20.2,20.2,0,0,0,174.23.84ZM160.44-11.13a40.16,40.16,0,0,1-2.17-4.69,12.621,12.621,0,0,0-4.55,6.93q-.21.98-.98.98-.98,0-.98-1.61,0-3.78,5.95-7.91a36.456,36.456,0,0,1-1.96-10.15q-3.85,2.73-6.23,4.69a57.3,57.3,0,0,0-5.04,4.76q-5.39,5.53-5.39,11.97,0,8.26,9.73,8.26a24.989,24.989,0,0,0,7.6-1.61,35.97,35.97,0,0,0,8.645-4.27,42.354,42.354,0,0,1-4.06-6.3Zm12.39-4.76a7.326,7.326,0,0,0-.14-1.365,3.763,3.763,0,0,0-1.3-1.785,4.667,4.667,0,0,0-3.255-1.05q-3.29,0-7.84,2.8a46.31,46.31,0,0,0,6.79,12.04Q172.83-10.15,172.83-15.89Zm-3.36-28.07a2.148,2.148,0,0,0-.455-1.4,2.768,2.768,0,0,0-1.435-.84q-4.27,0-7.21,4.9a21.566,21.566,0,0,0-2.59,9.8,65.99,65.99,0,0,0,8.75-6.65Q169.47-40.95,169.47-43.96Zm48.58-5.32q.35,0,.49.42,0,.56-.84.7a28.877,28.877,0,0,0-8.365,4.83,52.236,52.236,0,0,0-8.4,8.435,44.2,44.2,0,0,0-6.58,11.655A37.055,37.055,0,0,0,191.73-9.66q0,9.31,6.58,9.31,3.85,0,8.995-3.4a48.275,48.275,0,0,0,9.66-8.54A48.724,48.724,0,0,0,224.63-24.36a32.181,32.181,0,0,0,3.15-13.335q0-6.405-4.41-6.4-3.57,0-8.4,3.815a36.673,36.673,0,0,0-8.435,9.66q-3.605,5.845-3.6,10.99t3.57,5.145a8.812,8.812,0,0,0,5.075-2.135,20.982,20.982,0,0,0,5.075-5.7q.28-.56.665-.56t.385.42q0,1.96-4.865,6.16t-8.365,4.2q-4.13,0-4.13-6.65,0-5.18,4.34-11.8A45.578,45.578,0,0,1,214.9-41.72q5.88-4.55,10.15-4.55,5.6,0,5.6,8.33A30.359,30.359,0,0,1,227.01-24.4a55.539,55.539,0,0,1-8.855,12.88A56.582,56.582,0,0,1,206.99-2.1q-5.95,3.78-10.43,3.78-7.77,0-7.77-11.06a34.958,34.958,0,0,1,2.66-13.265,42.562,42.562,0,0,1,6.475-11.165,67.646,67.646,0,0,1,8.05-8.26,45.751,45.751,0,0,1,7.49-5.425Q216.72-49.28,218.05-49.28Zm4.62,50.4q-3.15,0-3.15-3.43,0-4.55,4.935-13.055a83.333,83.333,0,0,1,11.27-15.26q6.335-6.755,9.975-6.755,1.33,0,1.33,1.89,0,2.94-4.935,9.59a121.366,121.366,0,0,1-10.6,12.46,71.868,71.868,0,0,1-8.75,7.98,15.053,15.053,0,0,0-.14,1.505,6.258,6.258,0,0,0,.07.875,3.471,3.471,0,0,0,.56,1.26,1.8,1.8,0,0,0,1.645.77,12.084,12.084,0,0,0,4.1-1.365,47.738,47.738,0,0,0,5.18-2.765l2.24-1.4a1.456,1.456,0,0,1,.07.56q0,.42-.63.7Q226.38,1.12,222.67,1.12Zm21.84-34.93q-.07-1.54-.91-1.54-2.17,0-6.58,4.9a77.368,77.368,0,0,0-8.54,11.725A45.8,45.8,0,0,0,223.09-7q2.94-2.38,7.56-7a99.893,99.893,0,0,0,9.1-10.57Q244.23-30.52,244.51-33.81Zm2.31,12.46a.928.928,0,0,1,1.05,1.05,3.233,3.233,0,0,1-.98,2.135,2.889,2.889,0,0,1-2.17,1.085q-.98,0-.98-1.365a2.45,2.45,0,0,1,1.12-2.135A3.629,3.629,0,0,1,246.82-21.35Zm-6.58,9.24a1.1,1.1,0,0,1,.98-.56,1.815,1.815,0,0,1,1.26.63q0,.28-.91,1.26A37.288,37.288,0,0,0,238.49-6.4q-2.17,3.395-2.17,4.515,0,.7,1.05.84a11.909,11.909,0,0,0,4.34-1.365,47.738,47.738,0,0,0,5.18-2.765l2.24-1.4a1.456,1.456,0,0,1,.07.56q0,.42-.63.7-9.45,6.44-13.16,6.44A1.609,1.609,0,0,1,233.59-.7q0-1.82,1.995-5.075A48.387,48.387,0,0,1,240.24-12.11Zm7.98.77-1.75.49q-.14,0-.14-.21,0-.63,1.575-1.54a5.537,5.537,0,0,1,2.555-.91q.98,0,.98,4.2l-.42,6.79q.07-.07,4.69-5.145a74.966,74.966,0,0,1,8.015-7.805q3.4-2.73,5.775-2.73,1.05.07,1.05.735t-1.26,1.715a3.657,3.657,0,0,1-1.925,1.05q-.665,0-.8-.28t-.665-.28a3.828,3.828,0,0,0-1.68.735,19.082,19.082,0,0,0-2.87,2.415q-1.715,1.68-3.255,3.325t-4.235,4.55Q251.16-1.33,249.13.77a1.594,1.594,0,0,1-.945.49q-.385,0-.385-.28a55.55,55.55,0,0,0,1.05-10.64v-1.33A.688.688,0,0,0,248.22-11.34Zm26.32-10.01a.928.928,0,0,1,1.05,1.05,3.233,3.233,0,0,1-.98,2.135,2.889,2.889,0,0,1-2.17,1.085q-.98,0-.98-1.365a2.45,2.45,0,0,1,1.12-2.135A3.629,3.629,0,0,1,274.54-21.35Zm-6.58,9.24a1.1,1.1,0,0,1,.98-.56,1.815,1.815,0,0,1,1.26.63q0,.28-.91,1.26A37.288,37.288,0,0,0,266.21-6.4q-2.17,3.395-2.17,4.515,0,.7,1.05.84a11.909,11.909,0,0,0,4.34-1.365,47.741,47.741,0,0,0,5.18-2.765l2.24-1.4a1.456,1.456,0,0,1,.07.56q0,.42-.63.7-9.45,6.44-13.16,6.44A1.609,1.609,0,0,1,261.31-.7q0-1.82,2-5.075A48.385,48.385,0,0,1,267.96-12.11Zm10.78,5.32q-4.2,0-4.2-1.82,0-2.17,4.97-5.145t8.96-2.975q2.03,0,2.03,1.26,0,.7-1.05,1.54a11.578,11.578,0,0,1-2.03,1.33,5.639,5.639,0,0,1-1.12.49.545.545,0,0,1-.56-.35q-.14-.49.735-1.015t.875-1.155q0-.63-1.575-.63t-4.935,2.2q-3.36,2.205-3.36,3.6,0,1.05,2.45,1.05.42,0,1.54-.07t1.12.28q0,.35-3.465,2.52T275.66-1.96q0,1.75,2.275,1.75A13.641,13.641,0,0,0,283.08-1.4a70.468,70.468,0,0,0,8.4-4.34l1.33-.84a1.456,1.456,0,0,1,.07.56q0,.42-.63.7a78.452,78.452,0,0,1-8.12,4.795,17.655,17.655,0,0,1-7.945,2.275q-3.535,0-3.535-2.345T278.74-6.79Zm12.53,2.1a1.18,1.18,0,0,1-.525.14q-.245,0-.245-.28a.672.672,0,0,1,.21-.49,27.841,27.841,0,0,0,6.3-5.25q-3.15-.98-3.15-2.765t2.38-3.99a6.859,6.859,0,0,1,4.48-2.2q1.4,0,1.4,1.68,0,2.59-2.59,5.53,3.36.56,3.36,1.61a2.348,2.348,0,0,1-1.225,2.135A12.572,12.572,0,0,0,298.83-5.95a5.852,5.852,0,0,0-1.61,3.78,1.2,1.2,0,0,0,.28.77,1.505,1.505,0,0,0,1.19.35,12.654,12.654,0,0,0,3.85-1.365,47.738,47.738,0,0,0,5.18-2.765l2.24-1.4a1.456,1.456,0,0,1,.07.56q0,.42-.63.7-9.45,6.44-13.16,6.44A1.609,1.609,0,0,1,294.42-.7a5.8,5.8,0,0,1,1.015-3.08,11.643,11.643,0,0,1,2.24-2.66q1.225-1.05,2.24-1.995T300.93-9.66q0-.28-.875-.35a20.458,20.458,0,0,1-2.275-.35A31.242,31.242,0,0,1,291.27-4.69Zm4.34-9.73q0,1.4,3.08,1.96a6.622,6.622,0,0,0,1.82-3.885q0-1.645-1.05-1.645a4.019,4.019,0,0,0-2.45,1.225A3.327,3.327,0,0,0,295.61-14.42Z" transform="translate(3.99 51.52)" fill="#eec23f"/></svg>