<svg xmlns="http://www.w3.org/2000/svg" width="217.868" height="25" viewBox="0 0 217.868 25">
  <g id="Group_14" data-name="Group 14" transform="translate(-70.68 -532.178)">
    <path id="Path_10" data-name="Path 10" d="M4.916-20.207h3.62a10.176,10.176,0,0,1,4.047.717,5.579,5.579,0,0,1,2.51,2,5.261,5.261,0,0,1,.854,2.988,5.473,5.473,0,0,1-.546,2.51A5.089,5.089,0,0,1,14-10.252a5.3,5.3,0,0,1-1.81.939,7.238,7.238,0,0,1,3.125,1.2,6.212,6.212,0,0,1,2.015,2.305,6.746,6.746,0,0,1,.7,3.091A6.138,6.138,0,0,1,17.109.643,6.023,6.023,0,0,1,14.394,2.9a10.529,10.529,0,0,1-4.32.8H6.282L6.3,3.392q.017-.307.017-.615V2.47h3.62a6.518,6.518,0,0,0,3.005-.632A4.3,4.3,0,0,0,14.821-.023a6.215,6.215,0,0,0,.649-2.937,5.869,5.869,0,0,0-.734-3.108,4.893,4.893,0,0,0-1.9-1.81,8.157,8.157,0,0,0-2.51-.837,15.893,15.893,0,0,0-2.579-.222v-.307a9.982,9.982,0,0,0,1.742-.171,5.664,5.664,0,0,0,1.844-.683,4.018,4.018,0,0,0,1.469-1.52,5.272,5.272,0,0,0,.581-2.647,5.677,5.677,0,0,0-.564-2.63,3.74,3.74,0,0,0-1.673-1.656A6.034,6.034,0,0,0,8.4-19.114H5.258a2.014,2.014,0,0,0-.085-.29q-.085-.256-.171-.529Zm1.673,0V3.7H4.37V-20.207ZM4.472,1.207V3.7H1.74l.034-.342h.41a2.129,2.129,0,0,0,1.537-.632,2.045,2.045,0,0,0,.649-1.52Zm0-18.921h-.1a2.045,2.045,0,0,0-.649-1.52,2.129,2.129,0,0,0-1.537-.632h-.41l-.034-.342H4.472Zm30.055-2.971a12.889,12.889,0,0,1,6.421,1.554,11.038,11.038,0,0,1,4.32,4.354,13.227,13.227,0,0,1,1.554,6.523,13.227,13.227,0,0,1-1.554,6.523,11.038,11.038,0,0,1-4.32,4.355,12.889,12.889,0,0,1-6.421,1.554A12.818,12.818,0,0,1,28.14,2.624a11.038,11.038,0,0,1-4.32-4.355,13.227,13.227,0,0,1-1.554-6.523,13.227,13.227,0,0,1,1.554-6.523,11.038,11.038,0,0,1,4.32-4.354A12.818,12.818,0,0,1,34.527-20.685Zm0,23.839A8.98,8.98,0,0,0,39.6,1.719a9.574,9.574,0,0,0,3.381-4,13.832,13.832,0,0,0,1.212-5.977A13.832,13.832,0,0,0,42.98-14.23a9.573,9.573,0,0,0-3.381-4,8.98,8.98,0,0,0-5.072-1.434,8.92,8.92,0,0,0-5.038,1.434,9.573,9.573,0,0,0-3.381,4A13.832,13.832,0,0,0,24.9-8.254a13.832,13.832,0,0,0,1.212,5.977,9.573,9.573,0,0,0,3.381,4A8.92,8.92,0,0,0,34.527,3.153ZM54.711-20.207V3.7h-2.22V-20.207ZM63.933,2.641V3.7H54.609V2.641ZM62.464-8.6v1.025H54.609V-8.6Zm1.469-11.612v1.059H54.609v-1.059ZM66.016-1.833,64.035,3.7H58.366L59.6,2.641a6.7,6.7,0,0,0,2.954-.564A4.846,4.846,0,0,0,64.411.489a12.481,12.481,0,0,0,1.264-2.322ZM62.464-7.639v2.254h-.342V-5.9a1.638,1.638,0,0,0-.478-1.178,1.554,1.554,0,0,0-1.161-.5v-.068Zm0-3.142v2.254H60.483V-8.6a1.677,1.677,0,0,0,1.161-.529,1.638,1.638,0,0,0,.478-1.178v-.478Zm1.469-8.47v2.732h-.342v-.615a1.965,1.965,0,0,0-.581-1.417,2.041,2.041,0,0,0-1.434-.632v-.068Zm0-1.571v.99l-4.167-.376a13.09,13.09,0,0,0,1.588-.1q.837-.1,1.554-.239A5.152,5.152,0,0,0,63.933-20.822ZM52.594,1.207V3.7H49.861V3.358h.444a2.072,2.072,0,0,0,1.52-.632,2.2,2.2,0,0,0,.666-1.52Zm0-18.921h-.1a2.045,2.045,0,0,0-.649-1.52,2.129,2.129,0,0,0-1.537-.632H49.9l-.034-.342h2.732ZM77.047-9.449l9.7,11.407A5.485,5.485,0,0,0,88.2,2.983a4.592,4.592,0,0,0,1.793.376V3.7H88.523q-.342,0-.973-.051a8.224,8.224,0,0,1-1.366-.239,6.563,6.563,0,0,1-1.469-.581A4.52,4.52,0,0,1,83.4,1.753l-.6-.717L81.265-.808q-.939-1.127-1.981-2.408T77.3-5.624L75.767-7.468l-.6-.717Zm9.87-10.519L76.706-8.185H75.169l9.392-11.783Zm2.357-.239v.307h-.137a5,5,0,0,0-2.1.444,4.813,4.813,0,0,0-1.656,1.23l-2.152-.068a.934.934,0,0,0,.154-1.093,1.028,1.028,0,0,0-.973-.512h-.342v-.307h7.206Zm-15.2,0V3.7h-2.22V-20.207ZM71.958,1.207V3.7H69.226V3.358h.444a2.072,2.072,0,0,0,1.52-.632,2.2,2.2,0,0,0,.666-1.52Zm0-18.921h-.1a2.2,2.2,0,0,0-.666-1.52,2.072,2.072,0,0,0-1.52-.632h-.444v-.342h2.732ZM73.973,1.207h.1a2.2,2.2,0,0,0,.666,1.52,2.072,2.072,0,0,0,1.52.632h.444V3.7H73.973Zm0-18.921v-2.493h2.732v.342h-.444a2.072,2.072,0,0,0-1.52.632,2.2,2.2,0,0,0-.666,1.52Z" transform="translate(198.556 553)" fill="#fff"/>
    <path id="Path_9" data-name="Path 9" d="M23.081-5.656V-.215a11.028,11.028,0,0,1-2.044,1.979A11.024,11.024,0,0,1,17.887,3.4a13.4,13.4,0,0,1-4.369.643A12.627,12.627,0,0,1,7.352,2.506,10.687,10.687,0,0,1,3.18-1.682a12.677,12.677,0,0,1-1.5-6.282,12.771,12.771,0,0,1,1.5-6.3,10.657,10.657,0,0,1,4.171-4.2,12.376,12.376,0,0,1,6.166-1.5,16.359,16.359,0,0,1,3.265.3,13.111,13.111,0,0,1,2.622.808,14.354,14.354,0,0,1,2.127,1.138l.66,4.65h-.3a7.749,7.749,0,0,0-1.632-3.215,7.4,7.4,0,0,0-2.852-2,10.318,10.318,0,0,0-3.891-.692,8.692,8.692,0,0,0-4.88,1.385,9.313,9.313,0,0,0-3.3,3.858A13.2,13.2,0,0,0,4.153-7.964,13.2,13.2,0,0,0,5.34-2.193a9.2,9.2,0,0,0,3.3,3.842,8.973,8.973,0,0,0,4.88,1.4A11.059,11.059,0,0,0,16.3,2.7a11.15,11.15,0,0,0,2.523-.989A9.624,9.624,0,0,0,20.938.181l.033-5.837q0-1.484-1.682-1.484h-.528v-.33h6.463v.33H24.73Q23.015-7.14,23.081-5.656ZM37.689-19.967,47.45,3.379h-2.8L37.029-16.834ZM30.6,1.17a1.678,1.678,0,0,0-.066,1.121A1.366,1.366,0,0,0,31.077,3a1.4,1.4,0,0,0,.775.247h.3v.33H25.521v-.33h.3a3.074,3.074,0,0,0,1.566-.478,3.52,3.52,0,0,0,1.335-1.6Zm7.09-21.137.3,2.308L29.709,3.478H27.73l8.442-20.049.181-.412q.181-.412.429-1.006t.429-1.154a3.039,3.039,0,0,0,.181-.824Zm4.65,14.542v.989H32.017v-.989Zm1.484,6.6h2.7a3.307,3.307,0,0,0,1.319,1.6,3.16,3.16,0,0,0,1.583.478h.264v.33H42.273v-.33h.3A1.485,1.485,0,0,0,43.69,2.7,1.423,1.423,0,0,0,43.822,1.17ZM57.606-19.967a10.625,10.625,0,0,1,1.138.066q.61.066,1.187.181t1.055.231a3.618,3.618,0,0,1,.742.247v3.66h-.3a3.067,3.067,0,0,0-1.088-2.49,3.985,3.985,0,0,0-2.638-.907A3.938,3.938,0,0,0,54.77-17.84a3.664,3.664,0,0,0-1.121,2.655,4.74,4.74,0,0,0,.28,1.467,3.871,3.871,0,0,0,1.039,1.566l6.5,6a4.611,4.611,0,0,1,1.319,1.979,6.84,6.84,0,0,1,.33,2.044,6.121,6.121,0,0,1-1.665,4.452,5.984,5.984,0,0,1-4.5,1.715,12.477,12.477,0,0,1-1.863-.165A9.114,9.114,0,0,1,53.006,3.3a5,5,0,0,1-1.665-1.072,7.336,7.336,0,0,1-.1-1.319,11.171,11.171,0,0,1,.132-1.665,10.4,10.4,0,0,1,.363-1.6h.3A5.5,5.5,0,0,0,52.462.576a4.154,4.154,0,0,0,1.731,1.9,4.718,4.718,0,0,0,2.589.577A4.924,4.924,0,0,0,59.9,1.78a4.024,4.024,0,0,0,1.3-3.149,4.379,4.379,0,0,0-.33-1.731,3.731,3.731,0,0,0-.956-1.335l-6.331-5.87A5.157,5.157,0,0,1,52.2-12.333a6.135,6.135,0,0,1-.4-2.061,5.782,5.782,0,0,1,.66-2.671,5.269,5.269,0,0,1,1.962-2.094A5.925,5.925,0,0,1,57.606-19.967Zm4.122.33v.692H59.222v-.692Zm14.542.231V3.577H74.127V-19.407Zm8.475-.132v.989H65.652v-.989Zm0,.89v2.671l-.33-.033v-.561a1.854,1.854,0,0,0-.577-1.385,2.025,2.025,0,0,0-1.368-.594v-.1Zm0-1.484v.956l-4.023-.363a12.638,12.638,0,0,0,1.533-.1q.808-.1,1.5-.231A4.975,4.975,0,0,0,84.745-20.132ZM74.226,1.17V3.577H71.588v-.33h.429a2,2,0,0,0,1.467-.61,2.123,2.123,0,0,0,.643-1.467Zm1.946,0h.1a2.123,2.123,0,0,0,.643,1.467,2,2,0,0,0,1.467.61h.429v.33H76.171ZM67.927-18.648v.1a2,2,0,0,0-1.385.594,1.881,1.881,0,0,0-.561,1.385v.561l-.33.033v-2.671Zm-2.275-1.484a6.005,6.005,0,0,0,1.006.264q.676.132,1.5.231a12.8,12.8,0,0,0,1.517.1l-4.023.363Z" transform="translate(69 553.123)" fill="#fff"/>
    <path id="Path_8" data-name="Path 8" d="M660.245,381.479a.259.259,0,0,0-.4.115,11.141,11.141,0,0,1-.961,1.3,8.248,8.248,0,0,1-1.211,1.124,4.3,4.3,0,0,1-3.007.778,2.816,2.816,0,0,1-1.4-.519,3.306,3.306,0,0,1-.961-1.172s-.24-.519-.625-1.47a5.417,5.417,0,0,0-.451-.778,1.684,1.684,0,0,0-.317-.432,1.172,1.172,0,0,0-.673-.346,1.193,1.193,0,0,0-.451,0l-.317.087a4.22,4.22,0,0,0-.442.259c-.182.144-.413.346-.682.605s-.365.413-.653.711l-.528.519c-.125.115-.25.24-.384.384s-.279.288-.432.432l-.4.394c-.624.634-1.018.961-1.162,1.124l-.1.086h.183a.231.231,0,0,1,.115,0,.164.164,0,0,1,.067.134v.048l.135-.346.317-.778.586-1.556,1.21-3.113a.605.605,0,0,0-1.124-.432c-.24.548-.423.961-.538,1.172a2.647,2.647,0,0,1-.317.519l-.365.557a.49.49,0,0,0,.134.8.557.557,0,0,0,.855-.144l.4-.567a4.265,4.265,0,0,0,.365-.644c.144-.259.346-.663.586-1.211l-1.124-.394c-.211.961-.5,2.008-.855,3.161-.067.288-.211.807-.452,1.556l-.269.778-.135.432a1.6,1.6,0,0,0-.048.211v.279a.307.307,0,0,0,.134.135.54.54,0,0,0,.135.086h.23a.134.134,0,0,1,.086-.048.961.961,0,0,0,.24-.173c.154-.144.548-.548,1.172-1.211a11.976,11.976,0,0,1,1.211-1.163,10.484,10.484,0,0,1,1.307-.961,3.284,3.284,0,0,1,.672-.384l.317-.135a.116.116,0,0,1,.086,0v.048a1.386,1.386,0,0,1,.183.211c.058.086.183.307.355.653a13.376,13.376,0,0,0,.855,1.508,4.283,4.283,0,0,0,1.355,1.259,3.842,3.842,0,0,0,1.8.519,5.13,5.13,0,0,0,1.8-.221,5.333,5.333,0,0,0,1.576-.778,8.053,8.053,0,0,0,1.307-1.162,13.257,13.257,0,0,0,1.028-1.345h.048a.279.279,0,0,0-.135-.413m-24.682-2.219.173-.048a.25.25,0,0,1,.135.221,1.2,1.2,0,0,1,0,.3,3.014,3.014,0,0,0-.135.346,2.375,2.375,0,0,1-.451.605,3.21,3.21,0,0,1-1.393.826,6.112,6.112,0,0,1-1.085.173.547.547,0,0,1,.134-.259,4.284,4.284,0,0,1,2.344-2.075.721.721,0,0,1,.317-.086m9.079,2.335a16.016,16.016,0,0,1-5.937,3.891,8.55,8.55,0,0,1-3.459.384,3.18,3.18,0,0,1-1.489-.471,2.624,2.624,0,0,1-.961-1.086,1.712,1.712,0,0,1-.221-.644,2.37,2.37,0,0,1,0-.778,4.1,4.1,0,0,1,0-.567,5.307,5.307,0,0,0,1.528-.125,4.035,4.035,0,0,0,1.8-.913,2.555,2.555,0,0,0,.682-.778c.058-.115.134-.269.221-.471a1.469,1.469,0,0,0,.135-.567,1.288,1.288,0,0,0-.182-.692,1.393,1.393,0,0,0-.586-.519,2.111,2.111,0,0,0-.759,0,2.239,2.239,0,0,0-.538.125,5.226,5.226,0,0,0-1.758,1.038,5.62,5.62,0,0,0-1.258,1.518,4.642,4.642,0,0,0-.538,1.921v.961a2.884,2.884,0,0,0,.355.961,3.372,3.372,0,0,0,1.441,1.518,2.3,2.3,0,0,0,.538.259l.49.125a5.824,5.824,0,0,0,.961.086,9.7,9.7,0,0,0,3.785-.778,15.1,15.1,0,0,0,3.238-1.768,18.06,18.06,0,0,0,1.48-1.086c.24-.173.721-.557,1.441-1.162a.269.269,0,0,0,0-.432.288.288,0,0,0-.452,0" transform="translate(-469.2 162.502)" fill="#fff"/>
  </g>
</svg>
