<svg xmlns="http://www.w3.org/2000/svg" xmlns:xlink="http://www.w3.org/1999/xlink" width="251.263" height="62" viewBox="0 0 251.263 62">
  <defs>
    <clipPath id="clip-path">
      <rect id="Rectangle_6" data-name="Rectangle 6" width="251.263" height="62" transform="translate(47 512)" fill="none"/>
    </clipPath>
    <clipPath id="clip-path-2">
      <path id="Path_5" data-name="Path 5" d="M464.31,362.17H821.242v35.952H464.31Z" transform="translate(-464.31 -362.17)"/>
    </clipPath>
  </defs>
  <g id="Group_14" data-name="Group 14" transform="translate(-47 -512)">
    <g id="Mask_Group_1" data-name="Mask Group 1" clip-path="url(#clip-path)">
      <g id="logo" transform="translate(-6.026 525.053)" clip-path="url(#clip-path-2)">
        <path id="Path_4" data-name="Path 4" d="M655.874,381a.22.22,0,0,0-.343.1,9.458,9.458,0,0,1-.816,1.1,7,7,0,0,1-1.028.954,3.647,3.647,0,0,1-2.554.661,2.39,2.39,0,0,1-1.191-.441,2.806,2.806,0,0,1-.816-1s-.2-.441-.53-1.248a4.6,4.6,0,0,0-.383-.661,1.429,1.429,0,0,0-.269-.367,1,1,0,0,0-.571-.294,1.011,1.011,0,0,0-.383,0l-.269.073a3.575,3.575,0,0,0-.375.22c-.155.122-.351.294-.579.514s-.31.351-.555.6l-.449.441c-.106.1-.212.2-.326.326s-.237.245-.367.367l-.343.334c-.53.538-.865.816-.987.954l-.082.073h.155a.2.2,0,0,1,.1,0,.139.139,0,0,1,.057.114v.041l.114-.294.269-.661.5-1.322,1.028-2.643a.514.514,0,0,0-.954-.367c-.2.465-.359.816-.457,1a2.249,2.249,0,0,1-.269.441l-.31.473a.416.416,0,0,0,.114.677.473.473,0,0,0,.726-.122l.343-.481a3.622,3.622,0,0,0,.31-.547c.122-.22.294-.563.5-1.028l-.954-.334c-.179.816-.424,1.705-.726,2.684-.057.245-.179.685-.383,1.322l-.228.661-.114.367a1.346,1.346,0,0,0-.041.179v.237a.261.261,0,0,0,.114.114.458.458,0,0,0,.114.073h.2a.114.114,0,0,1,.073-.041.816.816,0,0,0,.2-.147c.131-.122.465-.465,1-1.028a10.159,10.159,0,0,1,1.028-.987,8.9,8.9,0,0,1,1.109-.816,2.788,2.788,0,0,1,.571-.326l.269-.114a.1.1,0,0,1,.073,0v.041a1.176,1.176,0,0,1,.155.179c.049.073.155.261.3.555a11.368,11.368,0,0,0,.726,1.281,3.637,3.637,0,0,0,1.15,1.069,3.263,3.263,0,0,0,1.526.441,4.356,4.356,0,0,0,1.526-.188,4.528,4.528,0,0,0,1.338-.661,6.841,6.841,0,0,0,1.109-.987,11.263,11.263,0,0,0,.873-1.142h.041a.236.236,0,0,0-.114-.351m-20.958-1.884.147-.041a.212.212,0,0,1,.114.188,1.013,1.013,0,0,1,0,.253,2.566,2.566,0,0,0-.114.294,2.017,2.017,0,0,1-.383.514,2.725,2.725,0,0,1-1.183.7,5.188,5.188,0,0,1-.922.147.465.465,0,0,1,.114-.22,3.638,3.638,0,0,1,1.99-1.762.612.612,0,0,1,.269-.073m7.709,1.982a13.6,13.6,0,0,1-5.042,3.3,7.26,7.26,0,0,1-2.937.326,2.7,2.7,0,0,1-1.264-.4,2.228,2.228,0,0,1-.816-.922,1.453,1.453,0,0,1-.188-.547,2.009,2.009,0,0,1,0-.661,3.48,3.48,0,0,1,0-.481,4.5,4.5,0,0,0,1.3-.106,3.426,3.426,0,0,0,1.526-.775,2.171,2.171,0,0,0,.579-.661c.049-.1.114-.228.188-.4a1.248,1.248,0,0,0,.114-.481,1.094,1.094,0,0,0-.155-.587,1.184,1.184,0,0,0-.5-.441,1.8,1.8,0,0,0-.644,0,1.9,1.9,0,0,0-.457.106,4.438,4.438,0,0,0-1.493.881,4.772,4.772,0,0,0-1.069,1.289,3.941,3.941,0,0,0-.457,1.632v.816a2.448,2.448,0,0,0,.3.816,2.863,2.863,0,0,0,1.224,1.289,1.95,1.95,0,0,0,.457.22l.416.106a4.946,4.946,0,0,0,.816.073,8.232,8.232,0,0,0,3.214-.661,12.827,12.827,0,0,0,2.749-1.5,15.333,15.333,0,0,0,1.256-.922c.2-.147.612-.473,1.224-.987a.228.228,0,0,0,0-.367.245.245,0,0,0-.383,0" transform="translate(-476.963 -363.852)" fill="#fff"/>
      </g>
    </g>
    <text id="boek" transform="translate(179 553)" fill="#fff" font-size="29" font-family="Cinzel-Regular, Cinzel"><tspan x="0" y="0">BOEK</tspan></text>
    <text id="Gast" transform="translate(69 553)" fill="#fff" font-size="28" font-family="Cinzel-Regular, Cinzel"><tspan x="0" y="0">GAST</tspan></text>
  </g>
</svg>
