<svg xmlns="http://www.w3.org/2000/svg" width="320" height="75.827" viewBox="0 0 320 75.827">
  <path id="Path_3" data-name="Path 3" d="M50.794-7.73q0,2.619-3.781,3.492-.214,0-.214-.269t.5-.6a2.787,2.787,0,0,0,1.427-2.216q0-2.351-3.995-3.425Q39.452-4.64,30.072-.611T13.415,3.419Q6.139,3.419,6.139.6q0-2.351,4.958-5.608a51.371,51.371,0,0,1,12.769-5.709A49.272,49.272,0,0,1,38.6-13.17a31.243,31.243,0,0,1,5.849.47,14.821,14.821,0,0,0,2.211-7.724,4.688,4.688,0,0,0-2.211-3.929,10,10,0,0,0-5.921-1.578,18.028,18.028,0,0,0-7.062,1.41,2.3,2.3,0,0,1-1.141.47q-.785,0-.785-.369t1.07-.907q1.569-.47,6.028-3.627a57.556,57.556,0,0,0,8.7-7.69q4.244-4.533,4.244-7.623,0-5.037-11.556-5.037a53.72,53.72,0,0,0-17.3,3.123A50.858,50.858,0,0,0,5.283-38.054q-6.277,5-6.277,9.772,0,2.552,3.353,2.552a21.364,21.364,0,0,0,9.416-2.25A72.488,72.488,0,0,0,23.9-36.14q.927-1.007,1.284-1.007.785,0,.785.47a3.84,3.84,0,0,1-.5.94,59.778,59.778,0,0,1-5.207,4.231,71.226,71.226,0,0,1-6.206,4.164A40.883,40.883,0,0,1,7.6-24.319a18.887,18.887,0,0,1-6.527,1.343q-5.065,0-5.065-4.231,0-5.507,7.633-11.317a64.338,64.338,0,0,1,17.94-9.4,56.8,56.8,0,0,1,18.44-3.593q12.911,0,12.911,5.977,0,4.366-6.17,10.31t-11.092,8.16a23.149,23.149,0,0,1,4.137-.4,12.471,12.471,0,0,1,6.919,1.612A5,5,0,0,1,49.153-21.5a15.69,15.69,0,0,1-3.21,9.2Q50.794-10.954,50.794-7.73ZM37.811-11.558A41.493,41.493,0,0,0,25.542-9.409a53.744,53.744,0,0,0-11.449,4.9q-4.6,2.754-4.6,4.466t4.387,1.713a39.979,39.979,0,0,0,9.63-1.31A48.648,48.648,0,0,0,34.494-4a26.437,26.437,0,0,0,8.81-7.086A32.082,32.082,0,0,0,37.811-11.558ZM38.6-45.005q0,.2-8.31,13.7T18.052-11.625a2.855,2.855,0,0,1-1.569,1.343,5.079,5.079,0,0,1-1.748.47q-.606,0-.606-.3t5.279-8.664Q24.686-27.14,29.929-35.4t5.1-8.328a2.588,2.588,0,0,1,1.427-1.007l1.783-.537ZM64.989-22.573q1.07,0,1.07,1.007a3.023,3.023,0,0,1-1,2.048,3.014,3.014,0,0,1-2.211,1.041q-1,0-1-1.31a2.316,2.316,0,0,1,1.141-2.048A3.837,3.837,0,0,1,64.989-22.573Zm-6.705,8.866a1.133,1.133,0,0,1,1-.537,1.9,1.9,0,0,1,1.284.6q0,.269-.927,1.209a35.892,35.892,0,0,0-3.139,4.2Q54.289-4.976,54.289-3.9q0,.672,1.07.806a12.7,12.7,0,0,0,4.423-1.31A49.719,49.719,0,0,0,65.06-7.058L67.343-8.4a1.322,1.322,0,0,1,.071.537q0,.4-.642.672-9.63,6.179-13.411,6.179-1.855,0-1.855-1.746T53.54-7.629A46.687,46.687,0,0,1,58.284-13.707Zm7.49,7.119a1.262,1.262,0,0,1-.535.134q-.25,0-.25-.269a.627.627,0,0,1,.214-.47,28.076,28.076,0,0,0,6.42-5.037q-3.21-.94-3.21-2.653t2.425-3.828A7.174,7.174,0,0,1,75.4-20.827q1.427,0,1.427,1.612,0,2.485-2.639,5.306,3.424.537,3.424,1.545a2.232,2.232,0,0,1-1.248,2.048A12.566,12.566,0,0,0,73.478-7.8,5.451,5.451,0,0,0,71.837-4.17a1.116,1.116,0,0,0,.285.739,1.6,1.6,0,0,0,1.213.336,13.45,13.45,0,0,0,3.923-1.31,49.719,49.719,0,0,0,5.279-2.653L84.82-8.4a1.322,1.322,0,0,1,.071.537q0,.4-.642.672-9.63,6.179-13.411,6.179-1.855,0-1.855-1.746a5.348,5.348,0,0,1,1.034-2.955A11.372,11.372,0,0,1,72.3-8.267q1.248-1.007,2.283-1.914t1.034-1.175q0-.269-.892-.336a22.057,22.057,0,0,1-2.318-.336A31.4,31.4,0,0,1,65.774-6.588ZM70.2-15.924q0,1.343,3.139,1.881a6.189,6.189,0,0,0,1.855-3.728q0-1.578-1.07-1.578a4.2,4.2,0,0,0-2.5,1.175A3.156,3.156,0,0,0,70.2-15.924Zm30.673.4q0,1.343-1.855,2.888a5.509,5.509,0,0,1-2.675,1.545q-.82,0-.82-.4l.5-.6Q97.8-13.64,97.8-14.379q0-.94-1.07-.94-2.568.067-7.133,4.3T85.034-4.775q0,.873,1.034.873a7.258,7.258,0,0,0,2.889-.907,24.613,24.613,0,0,0,3.21-1.847l1.427-.94a4.9,4.9,0,0,0,.785-.806q1.569-1.813,2.069-1.813,1.141.134,1.141.94Q95.734-6.722,90.669,1.27a21.932,21.932,0,0,1,2.925-.2q3.424,0,3.424,1.679A4.04,4.04,0,0,1,95.7,5.132q-1.32,1.444-2.033,1.444t-.713-.47q0-.269.785-.84a1.668,1.668,0,0,0,.785-1.377q0-1.075-1.5-1.075a21.431,21.431,0,0,0-3.5.336q-3.139,5.1-4.958,7.959t-4.53,6.414q-5.136,6.783-9.059,6.783a2.111,2.111,0,0,1-2.425-2.351q0-4.164,6.028-10.88A30.477,30.477,0,0,1,87.958,2.009L91.953-5.11a27.645,27.645,0,0,1-2.925,1.478q-3.995,1.813-5.564,1.813A1.683,1.683,0,0,1,81.538-3.7q0-1.881,3.067-5.1a34.212,34.212,0,0,1,7.276-5.742q4.209-2.519,6.991-2.519a2.232,2.232,0,0,1,1.355.369A1.772,1.772,0,0,1,100.87-15.521ZM70.981,20.949q0,1.41,1.141,1.41,3.638,0,14.695-18.47a24.992,24.992,0,0,0-11.164,7.992Q70.981,17.591,70.981,20.949Zm42.657-43.522q1.07,0,1.07,1.007a3.023,3.023,0,0,1-1,2.048,3.014,3.014,0,0,1-2.211,1.041q-1,0-1-1.31a2.316,2.316,0,0,1,1.141-2.048A3.837,3.837,0,0,1,113.638-22.573Zm-6.705,8.866a1.133,1.133,0,0,1,1-.537,1.9,1.9,0,0,1,1.284.6q0,.269-.927,1.209a35.894,35.894,0,0,0-3.139,4.2q-2.211,3.257-2.211,4.332,0,.672,1.07.806a12.7,12.7,0,0,0,4.423-1.31,49.719,49.719,0,0,0,5.279-2.653L115.992-8.4a1.322,1.322,0,0,1,.071.537q0,.4-.642.672-9.63,6.179-13.411,6.179-1.855,0-1.855-1.746t2.033-4.869A46.687,46.687,0,0,1,106.933-13.707Zm8.56-10.545q4.851,0,9.559-.067,7.633-9.2,10.415-9.2a.887.887,0,0,1,1,1.007q0,3.224-4.993,8.06l5.421-.067q5.421-.2,6.634-.2t1.213.269q0,1.276-1.855,1.343l-13.411.537a80.864,80.864,0,0,1-8.631,6.515q-5.421,8.4-5.421,11.418,0,1.545,2.1,1.545t6.67-2.149L129.973-8.4a1.322,1.322,0,0,1,.071.537q0,.4-.642.672-2.283,1.478-4.993,2.955-5.778,2.754-8.845,2.754a3.884,3.884,0,0,1-2.211-.537A1.721,1.721,0,0,1,112.5-3.1l-.143-.537q0-2.284,3.281-7.69a106.554,106.554,0,0,1,7.775-11.048q-3.424.134-6.491.134t-3.067-.672Q113.852-24.185,115.493-24.252ZM134.253-31.1q0-.336-.285-.336-1.641,0-7.276,7.052h3.567Q134.253-28.483,134.253-31.1Zm-5.992,8.6q-2.283,0-3.067.067-.642.873-1.783,2.552T121.841-17.6A72.973,72.973,0,0,0,128.261-22.506ZM177.624-1.282q1.284.672,1.284,1.209A.973.973,0,0,1,177.981,1h-.357q-3.995-.6-8.56-5.776Q160,1.4,150.8,1.4a14.088,14.088,0,0,1-8.917-2.619A8.834,8.834,0,0,1,138.533-8.6q0-6.045,5.065-11.283a59.16,59.16,0,0,1,11.057-8.664q1.5-.94,4.137-2.552a25.432,25.432,0,0,1,1.641-8.328l.5-1.075a15.141,15.141,0,0,1,2.889-4.063,9.6,9.6,0,0,1,3.317-2.25,12.685,12.685,0,0,1,4.423-1.075,2.759,2.759,0,0,1,2.711,1.679,4.63,4.63,0,0,1,.357,2.082,7.058,7.058,0,0,1-1.034,3.291,15.414,15.414,0,0,1-3.281,3.9,49.255,49.255,0,0,1-4.173,3.392q-1.926,1.377-5.35,3.728a27.723,27.723,0,0,0,1.783,8.731,6.584,6.584,0,0,0,.285,1.007q5.778-3.157,10.343-3.157a8.969,8.969,0,0,1,2.639.47,3.912,3.912,0,0,1,2.925,4.1q0,6.448-7.7,12.425A20.421,20.421,0,0,0,177.624-1.282ZM163.571-12.767a37.507,37.507,0,0,1-2.211-4.5,12.066,12.066,0,0,0-4.637,6.649q-.214.94-1,.94-1,0-1-1.545,0-3.627,6.063-7.589a33.178,33.178,0,0,1-2-9.739q-3.923,2.619-6.349,4.5a57.118,57.118,0,0,0-5.136,4.567Q141.815-14.177,141.815-8q0,7.925,9.915,7.925a26.844,26.844,0,0,0,7.74-1.545,37.622,37.622,0,0,0,8.81-4.1,40.437,40.437,0,0,1-4.137-6.045ZM176.2-17.334a6.632,6.632,0,0,0-.143-1.31,3.619,3.619,0,0,0-1.32-1.713,4.949,4.949,0,0,0-3.317-1.007q-3.353,0-7.989,2.687a43.806,43.806,0,0,0,6.919,11.552Q176.2-11.827,176.2-17.334Zm-3.424-26.932a1.983,1.983,0,0,0-.464-1.343,2.859,2.859,0,0,0-1.462-.806q-4.351,0-7.347,4.7a19.769,19.769,0,0,0-2.639,9.4,66.971,66.971,0,0,0,8.917-6.38Q172.773-41.378,172.773-44.266Zm49.505-5.1a.514.514,0,0,1,.5.4q0,.537-.856.672a29.939,29.939,0,0,0-8.524,4.634,51.782,51.782,0,0,0-8.56,8.093,41.826,41.826,0,0,0-6.705,11.183,33.739,33.739,0,0,0-2.675,13.03q0,8.933,6.705,8.933,3.923,0,9.166-3.257a48.4,48.4,0,0,0,9.844-8.194,46.487,46.487,0,0,0,7.811-11.586,29.4,29.4,0,0,0,3.21-12.795q0-6.145-4.494-6.145-3.638,0-8.56,3.66a35.933,35.933,0,0,0-8.6,9.268q-3.674,5.608-3.674,10.545t3.638,4.936a9.289,9.289,0,0,0,5.172-2.048,20.6,20.6,0,0,0,5.172-5.474q.285-.537.678-.537a.352.352,0,0,1,.392.4q0,1.881-4.958,5.91t-8.524,4.03q-4.209,0-4.209-6.38,0-4.97,4.423-11.317a44.84,44.84,0,0,1,10.415-10.712q5.992-4.366,10.343-4.366,5.707,0,5.707,7.992a27.809,27.809,0,0,1-3.709,13,53.312,53.312,0,0,1-9.024,12.358A56.96,56.96,0,0,1,211.008-4.1Q204.944-.476,200.379-.476q-7.918,0-7.918-10.612a31.848,31.848,0,0,1,2.711-12.727,40.349,40.349,0,0,1,6.6-10.712,66.921,66.921,0,0,1,8.2-7.925,46.667,46.667,0,0,1,7.633-5.205Q220.923-49.371,222.278-49.371Zm4.708,48.357q-3.21,0-3.21-3.291,0-4.366,5.029-12.526A80.459,80.459,0,0,1,240.29-31.472q6.456-6.481,10.165-6.481,1.355,0,1.355,1.813,0,2.821-5.029,9.2a118.6,118.6,0,0,1-10.807,11.955,71.914,71.914,0,0,1-8.917,7.657,13.618,13.618,0,0,0-.143,1.444,5.661,5.661,0,0,0,.071.84,3.234,3.234,0,0,0,.571,1.209,1.874,1.874,0,0,0,1.676.739,12.865,12.865,0,0,0,4.173-1.31,49.72,49.72,0,0,0,5.279-2.653L240.968-8.4a1.322,1.322,0,0,1,.071.537q0,.4-.642.672Q230.767-1.014,226.986-1.014Zm22.256-33.514q-.071-1.478-.927-1.478-2.211,0-6.705,4.7a74.618,74.618,0,0,0-8.7,11.25A42.748,42.748,0,0,0,227.414-8.8q3-2.284,7.7-6.716a97.734,97.734,0,0,0,9.273-10.142Q248.957-31.371,249.242-34.528ZM251.6-22.573q1.07,0,1.07,1.007a3.023,3.023,0,0,1-1,2.048,3.014,3.014,0,0,1-2.211,1.041q-1,0-1-1.31a2.316,2.316,0,0,1,1.141-2.048A3.837,3.837,0,0,1,251.6-22.573Zm-6.705,8.866a1.133,1.133,0,0,1,1-.537,1.9,1.9,0,0,1,1.284.6q0,.269-.927,1.209a35.886,35.886,0,0,0-3.139,4.2Q240.9-4.976,240.9-3.9q0,.672,1.07.806a12.7,12.7,0,0,0,4.423-1.31,49.716,49.716,0,0,0,5.279-2.653L253.95-8.4a1.321,1.321,0,0,1,.071.537q0,.4-.642.672-9.63,6.179-13.411,6.179-1.855,0-1.855-1.746t2.033-4.869A46.686,46.686,0,0,1,244.891-13.707Zm8.132.739-1.783.47q-.143,0-.143-.2,0-.6,1.6-1.478a5.878,5.878,0,0,1,2.6-.873q1,0,1,4.03l-.428,6.515q.071-.067,4.779-4.936a74.546,74.546,0,0,1,8.168-7.489q3.46-2.619,5.885-2.619,1.07.067,1.07.705T274.494-17.2a3.811,3.811,0,0,1-1.962,1.007q-.678,0-.82-.269t-.678-.269a4.034,4.034,0,0,0-1.712.705,19.225,19.225,0,0,0-2.925,2.317q-1.748,1.612-3.317,3.19t-4.316,4.366q-2.746,2.787-4.815,4.8a1.665,1.665,0,0,1-.963.47q-.392,0-.392-.269a50.291,50.291,0,0,0,1.07-10.209v-1.276A.711.711,0,0,0,253.023-12.969Zm26.821-9.6q1.07,0,1.07,1.007a3.023,3.023,0,0,1-1,2.048,3.014,3.014,0,0,1-2.211,1.041q-1,0-1-1.31a2.316,2.316,0,0,1,1.141-2.048A3.837,3.837,0,0,1,279.844-22.573Zm-6.705,8.866a1.133,1.133,0,0,1,1-.537,1.9,1.9,0,0,1,1.284.6q0,.269-.927,1.209a35.9,35.9,0,0,0-3.139,4.2q-2.211,3.257-2.211,4.332,0,.672,1.07.806a12.7,12.7,0,0,0,4.423-1.31,49.725,49.725,0,0,0,5.279-2.653L282.2-8.4a1.322,1.322,0,0,1,.071.537q0,.4-.642.672Q272-1.014,268.217-1.014q-1.855,0-1.855-1.746T268.4-7.629A46.683,46.683,0,0,1,273.139-13.707Zm10.985,5.1q-4.28,0-4.28-1.746,0-2.082,5.065-4.936a19,19,0,0,1,9.131-2.854q2.069,0,2.069,1.209,0,.672-1.07,1.478a11.894,11.894,0,0,1-2.069,1.276,5.944,5.944,0,0,1-1.141.47.558.558,0,0,1-.571-.336q-.143-.47.749-.974t.892-1.108q0-.6-1.605-.6t-5.029,2.116q-3.424,2.116-3.424,3.459,0,1.007,2.5,1.007.428,0,1.569-.067t1.141.269q0,.336-3.531,2.418t-3.531,3.56q0,1.679,2.318,1.679a14.629,14.629,0,0,0,5.243-1.142,73.536,73.536,0,0,0,8.56-4.164l1.355-.806a1.322,1.322,0,0,1,.071.537q0,.4-.642.672a81.189,81.189,0,0,1-8.275,4.6,18.848,18.848,0,0,1-8.1,2.183q-3.6,0-3.6-2.25T284.124-8.6Zm12.769,2.015a1.262,1.262,0,0,1-.535.134q-.25,0-.25-.269a.627.627,0,0,1,.214-.47,28.076,28.076,0,0,0,6.42-5.037q-3.21-.94-3.21-2.653t2.425-3.828a7.174,7.174,0,0,1,4.565-2.116q1.427,0,1.427,1.612,0,2.485-2.639,5.306,3.424.537,3.424,1.545a2.232,2.232,0,0,1-1.248,2.048A12.564,12.564,0,0,0,304.6-7.8a5.451,5.451,0,0,0-1.641,3.627,1.116,1.116,0,0,0,.285.739,1.6,1.6,0,0,0,1.213.336,13.45,13.45,0,0,0,3.923-1.31,49.71,49.71,0,0,0,5.279-2.653L315.939-8.4a1.322,1.322,0,0,1,.071.537q0,.4-.642.672-9.63,6.179-13.411,6.179-1.855,0-1.855-1.746a5.348,5.348,0,0,1,1.034-2.955,11.372,11.372,0,0,1,2.283-2.552q1.248-1.007,2.283-1.914t1.034-1.175q0-.269-.892-.336a22.057,22.057,0,0,1-2.318-.336A31.4,31.4,0,0,1,296.893-6.588Zm4.423-9.336q0,1.343,3.139,1.881a6.189,6.189,0,0,0,1.855-3.728q0-1.578-1.07-1.578a4.2,4.2,0,0,0-2.5,1.175A3.156,3.156,0,0,0,301.315-15.924Z" transform="translate(3.99 51.52)" fill="#fff"/>
</svg>
