<svg xmlns="http://www.w3.org/2000/svg" xmlns:xlink="http://www.w3.org/1999/xlink" width="251.263" height="62" viewBox="0 0 251.263 62">
  <defs>
    <clipPath id="clip-path">
      <rect id="Rectangle_6" data-name="Rectangle 6" width="251.263" height="62" transform="translate(47 512)" fill="none"/>
    </clipPath>
    <clipPath id="clip-path-2">
      <path id="Path_5" data-name="Path 5" d="M464.31,362.17H821.242v35.952H464.31Z" transform="translate(-464.31 -362.17)"/>
    </clipPath>
  </defs>
  <g id="Mask_Group_1" data-name="Mask Group 1" transform="translate(-47 -512)" clip-path="url(#clip-path)">
    <g id="logo" transform="translate(-6.026 525.053)" clip-path="url(#clip-path-2)">
      <path id="Path_4" data-name="Path 4" d="M759.969,371.871v.286h.359a1.819,1.819,0,0,1,1.827,1.795v15.867a1.827,1.827,0,0,1-1.827,1.778h-.359v.286h6.241V391.6h-.359a1.827,1.827,0,0,1-1.827-1.8v-17.05c.367,0,2.1-.057,3.557,0,2.121.114,3.467,1.77,3.541,4.348a6.094,6.094,0,0,1-.179,1.713c-.816,2.57-2.978,2.921-4.462,2.961H764.97v.269c1.044,0,1.876.987,2.627,1.925.22.277,3.435,4.96,3.761,5.343a6.135,6.135,0,0,0,4.984,2.5h1.566v-.286c-1.68,0-2.741-.906-3.883-2.162s-3.573-4.723-3.573-4.723a7.049,7.049,0,0,0-2.039-2.007c2.741,0,4.846-2.676,4.846-5.441,0-3.328-2.121-5.368-5.58-5.368Zm-2.684,15.378H757c-.881,2.17-2.048,3.736-5.074,3.736h-4.079v-8.566h4.895a1.411,1.411,0,0,1,1.346,1.411v.416h.277v-4.519h-.286v.424a1.4,1.4,0,0,1-1.379,1.4h-4.829v-8.819H753.7a1.7,1.7,0,0,1,1.632,1.7v.514h.286v-3.606a11.993,11.993,0,0,1-3.4.522h-8.419v.286h.359a1.827,1.827,0,0,1,1.819,1.632v15.989a1.827,1.827,0,0,1-1.827,1.795h-.359v.286h11.837Zm-16.911,4.324h-.359a1.836,1.836,0,0,1-1.836-1.795V373.927a1.836,1.836,0,0,1,1.836-1.778h.359v-.277h-6.241v.286h.367a1.827,1.827,0,0,1,1.827,1.778v15.843a1.835,1.835,0,0,1-1.827,1.795h-.367v.286h6.249Zm-13.412-19.7v.286h.253a1.207,1.207,0,0,1,1.085,1.778L722.084,388.9l-5.98-14.962a1.2,1.2,0,0,1,1.077-1.778h.253v-.286h-6.428v.286h.228a2.823,2.823,0,0,1,2.521,1.787l8.019,18.323h.261a15.04,15.04,0,0,1,1.052-2.937l6.869-15.394a2.815,2.815,0,0,1,2.5-1.77h.253v-.294Zm-17.368,19.7h-.383a1.819,1.819,0,0,1-1.827-1.795V373.927a1.827,1.827,0,0,1,1.827-1.778h.359v-.277h-6.249v.286h.367a1.827,1.827,0,0,1,1.827,1.778v15.843a1.827,1.827,0,0,1-1.827,1.795h-.367v.286h6.249Zm-8.647-4.324c-.881,2.17-2.039,3.736-5.066,3.736H691.8V373.943a1.827,1.827,0,0,1,1.827-1.795h.359v-.277h-6.249v.286h.359a1.819,1.819,0,0,1,1.827,1.795v15.826a1.819,1.819,0,0,1-1.827,1.795h-.359v.286h11.837l1.632-4.609Zm-26,4.144c-4.846,0-8.068-3.81-8.068-9.537s3.173-9.537,8.068-9.537,8.076,3.818,8.076,9.537-3.263,9.537-8.076,9.537m0-19.93c-6.069,0-10.263,4.161-10.263,10.393s4.169,10.409,10.263,10.409,10.263-4.161,10.263-10.393S681,371.463,674.947,371.463M655.874,381a.22.22,0,0,0-.343.1,9.458,9.458,0,0,1-.816,1.1,7,7,0,0,1-1.028.954,3.647,3.647,0,0,1-2.554.661,2.39,2.39,0,0,1-1.191-.441,2.806,2.806,0,0,1-.816-1s-.2-.441-.53-1.248a4.6,4.6,0,0,0-.383-.661,1.429,1.429,0,0,0-.269-.367,1,1,0,0,0-.571-.294,1.011,1.011,0,0,0-.383,0l-.269.073a3.575,3.575,0,0,0-.375.22c-.155.122-.351.294-.579.514s-.31.351-.555.6l-.449.441c-.106.1-.212.2-.326.326s-.237.245-.367.367l-.343.334c-.53.538-.865.816-.987.954l-.082.073h.155a.2.2,0,0,1,.1,0,.139.139,0,0,1,.057.114v.041l.114-.294.269-.661.5-1.322,1.028-2.643a.514.514,0,0,0-.954-.367c-.2.465-.359.816-.457,1a2.249,2.249,0,0,1-.269.441l-.31.473a.416.416,0,0,0,.114.677.473.473,0,0,0,.726-.122l.343-.481a3.622,3.622,0,0,0,.31-.547c.122-.22.294-.563.5-1.028l-.954-.334c-.179.816-.424,1.705-.726,2.684-.057.245-.179.685-.383,1.322l-.228.661-.114.367a1.346,1.346,0,0,0-.041.179v.237a.261.261,0,0,0,.114.114.458.458,0,0,0,.114.073h.2a.114.114,0,0,1,.073-.041.816.816,0,0,0,.2-.147c.131-.122.465-.465,1-1.028a10.159,10.159,0,0,1,1.028-.987,8.9,8.9,0,0,1,1.109-.816,2.788,2.788,0,0,1,.571-.326l.269-.114a.1.1,0,0,1,.073,0v.041a1.176,1.176,0,0,1,.155.179c.049.073.155.261.3.555a11.368,11.368,0,0,0,.726,1.281,3.637,3.637,0,0,0,1.15,1.069,3.263,3.263,0,0,0,1.526.441,4.356,4.356,0,0,0,1.526-.188,4.528,4.528,0,0,0,1.338-.661,6.841,6.841,0,0,0,1.109-.987,11.263,11.263,0,0,0,.873-1.142h.041a.236.236,0,0,0-.114-.351m-20.958-1.884.147-.041a.212.212,0,0,1,.114.188,1.013,1.013,0,0,1,0,.253,2.566,2.566,0,0,0-.114.294,2.017,2.017,0,0,1-.383.514,2.725,2.725,0,0,1-1.183.7,5.188,5.188,0,0,1-.922.147.465.465,0,0,1,.114-.22,3.638,3.638,0,0,1,1.99-1.762.612.612,0,0,1,.269-.073m7.709,1.982a13.6,13.6,0,0,1-5.042,3.3,7.26,7.26,0,0,1-2.937.326,2.7,2.7,0,0,1-1.264-.4,2.228,2.228,0,0,1-.816-.922,1.453,1.453,0,0,1-.188-.547,2.009,2.009,0,0,1,0-.661,3.48,3.48,0,0,1,0-.481,4.5,4.5,0,0,0,1.3-.106,3.426,3.426,0,0,0,1.526-.775,2.171,2.171,0,0,0,.579-.661c.049-.1.114-.228.188-.4a1.248,1.248,0,0,0,.114-.481,1.094,1.094,0,0,0-.155-.587,1.184,1.184,0,0,0-.5-.441,1.8,1.8,0,0,0-.644,0,1.9,1.9,0,0,0-.457.106,4.438,4.438,0,0,0-1.493.881,4.772,4.772,0,0,0-1.069,1.289,3.941,3.941,0,0,0-.457,1.632v.816a2.448,2.448,0,0,0,.3.816,2.863,2.863,0,0,0,1.224,1.289,1.95,1.95,0,0,0,.457.22l.416.106a4.946,4.946,0,0,0,.816.073,8.232,8.232,0,0,0,3.214-.661,12.827,12.827,0,0,0,2.749-1.5,15.333,15.333,0,0,0,1.256-.922c.2-.147.612-.473,1.224-.987a.228.228,0,0,0,0-.367.245.245,0,0,0-.383,0m-31.432-9.259a12.636,12.636,0,0,1-3.443-.522v3.589h.286v-.506a1.7,1.7,0,0,1,1.632-1.7h5.417v17.132a1.836,1.836,0,0,1-1.827,1.746h-.367v.286h6.249v-.286h-.359a1.827,1.827,0,0,1-1.827-1.77V372.687h5.409a1.7,1.7,0,0,1,1.632,1.7v.506h.286V371.3a12.564,12.564,0,0,1-3.435.522ZM605.41,391.6h-.359a1.819,1.819,0,0,1-1.827-1.795V373.927a1.827,1.827,0,0,1,1.827-1.778h.359v-.277h-6.249v.286h.359a1.827,1.827,0,0,1,1.827,1.778v15.843a1.827,1.827,0,0,1-1.827,1.795h-.359v.286h6.249Zm-7.929-8.974v-.286h-5.6v.286h.449c.922,0,1.468.473,1.468,1.305v5.058a9.528,9.528,0,0,1-6.445,2.447c-4.838,0-8.158-3.842-8.158-9.545s3.263-9.537,8.158-9.537c3.777,0,6.388,1.836,7.252,5.107h.237l-.571-4.03a12.106,12.106,0,0,0-6.926-1.933c-6.061,0-10.254,4.161-10.254,10.393s4.193,10.377,10.263,10.377a10.039,10.039,0,0,0,8.264-3.679v-4.715c0-.816.506-1.3,1.428-1.3Zm-38.424-10.752v.286h.359a1.836,1.836,0,0,1,1.836,1.8v15.867a1.836,1.836,0,0,1-1.827,1.778h-.367v.286h6.233V391.6h-.367a1.835,1.835,0,0,1-1.827-1.795v-17.05c.375,0,2.1-.057,3.557,0,2.129.114,3.475,1.77,3.541,4.348a6.094,6.094,0,0,1-.179,1.713c-.816,2.57-2.978,2.921-4.454,2.961h-1.509v.269c1.044,0,1.876.987,2.619,1.925.22.277,3.435,4.96,3.761,5.343a6.135,6.135,0,0,0,4.984,2.5h1.566v-.286c-1.68,0-2.733-.906-3.883-2.162s-3.565-4.723-3.565-4.723a7.064,7.064,0,0,0-2.048-2.007c2.749,0,4.895-2.676,4.895-5.441,0-3.328-2.121-5.368-5.58-5.368Zm-3.41,19.7h-.367a1.836,1.836,0,0,1-1.827-1.795V373.927a1.836,1.836,0,0,1,1.827-1.778h.367v-.277h-6.241v.286h.359a1.836,1.836,0,0,1,1.836,1.778v15.843a1.835,1.835,0,0,1-1.836,1.795h-.359v.286h6.241Zm-18.625-.751V372.793h1.509c2.708,0,4.161,1.477,4.177,4.079,0,3.671-2.986,4.185-4.723,4.177v.269c2.757,0,6.445.71,6.445,4.984,0,2.888-1.689,4.544-4.617,4.536ZM533,371.871v.286h.359a1.811,1.811,0,0,1,1.836,1.77v15.892a1.835,1.835,0,0,1-1.827,1.778H533v.286h6.959c4.25,0,6.649-2.137,6.649-5.368a5.425,5.425,0,0,0-4.895-5.507,4.348,4.348,0,0,0,3.165-4.34c0-2.855-2.211-4.772-6.208-4.772Z" transform="translate(-476.963 -363.852)" fill="#fff"/>
    </g>
  </g>
</svg>
