<svg xmlns="http://www.w3.org/2000/svg" width="165.073" height="62" viewBox="0 0 165.073 62">
  <g id="Group_13" data-name="Group 13" transform="translate(-68 -181)">
    <rect id="Rectangle_5" data-name="Rectangle 5" width="165.073" height="62" transform="translate(68 181)" fill="none"/>
    <path id="Path_3" data-name="Path 3" d="M24.164-29.016q0,1.346-1.943,1.795-.11,0-.11-.138t.257-.311a1.432,1.432,0,0,0,.733-1.139q0-1.208-2.053-1.76a20.365,20.365,0,0,1-7.533,5.212,22.107,22.107,0,0,1-8.56,2.071q-3.739,0-3.739-1.45,0-1.208,2.548-2.882a26.4,26.4,0,0,1,6.562-2.934,25.321,25.321,0,0,1,7.57-1.26,16.056,16.056,0,0,1,3.006.242,7.617,7.617,0,0,0,1.136-3.969A2.409,2.409,0,0,0,20.9-37.559a5.137,5.137,0,0,0-3.043-.811,9.264,9.264,0,0,0-3.629.725,1.184,1.184,0,0,1-.587.242q-.4,0-.4-.19t.55-.466a14.532,14.532,0,0,0,3.1-1.864,29.579,29.579,0,0,0,4.472-3.952q2.181-2.33,2.181-3.917,0-2.589-5.939-2.589a27.607,27.607,0,0,0-8.89,1.6A26.136,26.136,0,0,0,.776-44.6Q-2.45-42.028-2.45-39.578q0,1.312,1.723,1.312a10.979,10.979,0,0,0,4.839-1.156,37.253,37.253,0,0,0,6.232-4.194q.477-.518.66-.518.4,0,.4.242a1.973,1.973,0,0,1-.257.483,30.72,30.72,0,0,1-2.676,2.174,36.6,36.6,0,0,1-3.189,2.14,21.01,21.01,0,0,1-3.318,1.553,9.706,9.706,0,0,1-3.354.69q-2.6,0-2.6-2.174,0-2.83,3.922-5.816a33.064,33.064,0,0,1,9.22-4.832,29.19,29.19,0,0,1,9.476-1.847q6.635,0,6.635,3.072,0,2.243-3.171,5.3a21.389,21.389,0,0,1-5.7,4.194,11.9,11.9,0,0,1,2.126-.207,6.409,6.409,0,0,1,3.556.828,2.567,2.567,0,0,1,1.246,2.243,8.063,8.063,0,0,1-1.65,4.729Q24.164-30.673,24.164-29.016Zm-6.672-1.967a21.323,21.323,0,0,0-6.305,1.1A27.619,27.619,0,0,0,5.3-27.359q-2.364,1.415-2.364,2.3t2.254.88a20.545,20.545,0,0,0,4.949-.673A25,25,0,0,0,15.787-27.1a13.586,13.586,0,0,0,4.527-3.641A16.487,16.487,0,0,0,17.492-30.983Zm.4-17.189q0,.1-4.271,7.041T7.337-31.018a1.467,1.467,0,0,1-.806.69,2.61,2.61,0,0,1-.9.242q-.312,0-.312-.155t2.713-4.452q2.713-4.3,5.407-8.543t2.621-4.28a1.33,1.33,0,0,1,.733-.518l.916-.276ZM31.459-36.644q.55,0,.55.518a1.553,1.553,0,0,1-.513,1.053,1.549,1.549,0,0,1-1.136.535q-.513,0-.513-.673a1.19,1.19,0,0,1,.587-1.053A1.972,1.972,0,0,1,31.459-36.644Zm-3.446,4.556a.582.582,0,0,1,.513-.276.974.974,0,0,1,.66.311q0,.138-.477.621A18.445,18.445,0,0,0,27.1-29.275a5.724,5.724,0,0,0-1.136,2.226q0,.345.55.414a6.525,6.525,0,0,0,2.273-.673A25.551,25.551,0,0,0,31.5-28.671l1.173-.69a.679.679,0,0,1,.037.276q0,.207-.33.345-4.949,3.175-6.892,3.175-.953,0-.953-.9a5.209,5.209,0,0,1,1.045-2.5A23.993,23.993,0,0,1,28.013-32.088Zm3.849,3.659a.649.649,0,0,1-.275.069q-.128,0-.128-.138a.322.322,0,0,1,.11-.242,14.428,14.428,0,0,0,3.3-2.589q-1.65-.483-1.65-1.363a2.91,2.91,0,0,1,1.246-1.967,3.687,3.687,0,0,1,2.346-1.087q.733,0,.733.828a4.16,4.16,0,0,1-1.356,2.727q1.76.276,1.76.794a1.147,1.147,0,0,1-.642,1.053,6.458,6.458,0,0,0-1.485,1.294,2.8,2.8,0,0,0-.843,1.864.573.573,0,0,0,.147.38.82.82,0,0,0,.623.173,6.912,6.912,0,0,0,2.016-.673,25.551,25.551,0,0,0,2.713-1.363l1.173-.69a.679.679,0,0,1,.037.276q0,.207-.33.345-4.949,3.175-6.892,3.175-.953,0-.953-.9a2.748,2.748,0,0,1,.532-1.519,5.844,5.844,0,0,1,1.173-1.312q.642-.518,1.173-.984t.532-.6q0-.138-.458-.173a11.335,11.335,0,0,1-1.191-.173A16.134,16.134,0,0,1,31.862-28.429Zm2.273-4.8q0,.69,1.613.966a3.181,3.181,0,0,0,.953-1.916q0-.811-.55-.811a2.16,2.16,0,0,0-1.283.6A1.622,1.622,0,0,0,34.135-33.227ZM49.9-33.02a2.123,2.123,0,0,1-.953,1.484,2.831,2.831,0,0,1-1.375.794q-.422,0-.422-.207l.257-.311q.916-.794.916-1.174,0-.483-.55-.483-1.32.035-3.666,2.209T41.759-27.5q0,.449.532.449a3.73,3.73,0,0,0,1.485-.466,12.649,12.649,0,0,0,1.65-.949l.733-.483a2.519,2.519,0,0,0,.4-.414q.806-.932,1.063-.932.587.069.587.483-.953,1.312-3.556,5.419a11.271,11.271,0,0,1,1.5-.1q1.76,0,1.76.863a2.076,2.076,0,0,1-.678,1.225q-.678.742-1.045.742t-.367-.242q0-.138.4-.431a.857.857,0,0,0,.4-.708q0-.552-.77-.552a11.013,11.013,0,0,0-1.8.173q-1.613,2.623-2.548,4.09t-2.328,3.3q-2.639,3.486-4.656,3.486a1.085,1.085,0,0,1-1.246-1.208q0-2.14,3.1-5.591a15.662,15.662,0,0,1,6.873-4.66l2.053-3.659a14.205,14.205,0,0,1-1.5.759,8.575,8.575,0,0,1-2.859.932.865.865,0,0,1-.99-.966,4.594,4.594,0,0,1,1.576-2.623,17.582,17.582,0,0,1,3.739-2.951,7.485,7.485,0,0,1,3.593-1.294,1.147,1.147,0,0,1,.7.19A.911.911,0,0,1,49.9-33.02ZM34.538-14.278q0,.725.587.725,1.87,0,7.552-9.492a12.843,12.843,0,0,0-5.737,4.107Q34.538-16,34.538-14.278ZM56.459-36.644q.55,0,.55.518a1.553,1.553,0,0,1-.513,1.053,1.549,1.549,0,0,1-1.136.535q-.513,0-.513-.673a1.19,1.19,0,0,1,.587-1.053A1.972,1.972,0,0,1,56.459-36.644Zm-3.446,4.556a.582.582,0,0,1,.513-.276.974.974,0,0,1,.66.311q0,.138-.477.621A18.446,18.446,0,0,0,52.1-29.275a5.724,5.724,0,0,0-1.136,2.226q0,.345.55.414a6.525,6.525,0,0,0,2.273-.673A25.551,25.551,0,0,0,56.5-28.671l1.173-.69a.679.679,0,0,1,.037.276q0,.207-.33.345-4.949,3.175-6.892,3.175-.953,0-.953-.9a5.209,5.209,0,0,1,1.045-2.5A23.993,23.993,0,0,1,53.014-32.088Zm4.4-5.419q2.493,0,4.912-.035,3.922-4.729,5.352-4.729a.456.456,0,0,1,.513.518q0,1.657-2.566,4.142l2.786-.035q2.786-.1,3.409-.1t.623.138q0,.656-.953.69l-6.892.276A41.553,41.553,0,0,1,60.162-33.3q-2.786,4.314-2.786,5.868,0,.794,1.081.794a9.417,9.417,0,0,0,3.428-1.1l2.969-1.622a.679.679,0,0,1,.037.276q0,.207-.33.345-1.173.759-2.566,1.519a11.81,11.81,0,0,1-4.546,1.415,2,2,0,0,1-1.136-.276.884.884,0,0,1-.44-.552l-.073-.276q0-1.174,1.686-3.952a54.757,54.757,0,0,1,4-5.678q-1.76.069-3.336.069t-1.576-.345Q56.569-37.472,57.413-37.507Zm9.641-3.521q0-.173-.147-.173-.843,0-3.739,3.624H65Q67.054-39.681,67.054-41.027Zm-3.079,4.418q-1.173,0-1.576.035-.33.449-.916,1.312t-.806,1.174A37.5,37.5,0,0,0,63.974-36.609ZM89.342-25.7q.66.345.66.621a.5.5,0,0,1-.477.552h-.183q-2.053-.311-4.4-2.968a16.533,16.533,0,0,1-9.385,3.175,7.24,7.24,0,0,1-4.582-1.346,4.54,4.54,0,0,1-1.723-3.8,8.236,8.236,0,0,1,2.6-5.8,30.4,30.4,0,0,1,5.682-4.452q.77-.483,2.126-1.312a13.07,13.07,0,0,1,.843-4.28l.257-.552a7.78,7.78,0,0,1,1.485-2.088,4.931,4.931,0,0,1,1.7-1.156,6.519,6.519,0,0,1,2.273-.552,1.418,1.418,0,0,1,1.393.863,2.379,2.379,0,0,1,.183,1.07,3.627,3.627,0,0,1-.532,1.691,7.921,7.921,0,0,1-1.686,2,25.313,25.313,0,0,1-2.145,1.743q-.99.708-2.749,1.916a14.246,14.246,0,0,0,.916,4.487,3.385,3.385,0,0,0,.147.518,11.345,11.345,0,0,1,5.315-1.622,4.609,4.609,0,0,1,1.356.242,2.01,2.01,0,0,1,1.5,2.105q0,3.313-3.959,6.385A10.5,10.5,0,0,0,89.342-25.7ZM82.12-31.6a19.276,19.276,0,0,1-1.136-2.313A6.2,6.2,0,0,0,78.6-30.5q-.11.483-.513.483-.513,0-.513-.794,0-1.864,3.116-3.9a17.05,17.05,0,0,1-1.026-5Q77.648-38.37,76.4-37.4a29.345,29.345,0,0,0-2.639,2.347,8.125,8.125,0,0,0-2.823,5.9q0,4.073,5.1,4.073a13.8,13.8,0,0,0,3.977-.794,19.334,19.334,0,0,0,4.527-2.105,20.781,20.781,0,0,1-2.126-3.106Zm6.489-2.347a3.409,3.409,0,0,0-.073-.673,1.86,1.86,0,0,0-.678-.88,2.543,2.543,0,0,0-1.7-.518,8.554,8.554,0,0,0-4.106,1.381A22.511,22.511,0,0,0,85.6-28.705Q88.609-31.122,88.609-33.952Zm-1.76-13.841a1.019,1.019,0,0,0-.238-.69,1.469,1.469,0,0,0-.752-.414,4.446,4.446,0,0,0-3.776,2.416,10.16,10.16,0,0,0-1.356,4.832,34.416,34.416,0,0,0,4.582-3.279A3.906,3.906,0,0,0,86.849-47.792Zm25.441-2.623a.264.264,0,0,1,.257.207q0,.276-.44.345a15.386,15.386,0,0,0-4.381,2.382,26.61,26.61,0,0,0-4.4,4.159,21.5,21.5,0,0,0-3.446,5.747,17.339,17.339,0,0,0-1.375,6.7q0,4.591,3.446,4.591a9.3,9.3,0,0,0,4.711-1.674,24.872,24.872,0,0,0,5.059-4.211,23.89,23.89,0,0,0,4.014-5.954,15.107,15.107,0,0,0,1.65-6.575q0-3.158-2.309-3.158a7.822,7.822,0,0,0-4.4,1.881,18.466,18.466,0,0,0-4.417,4.763,10.007,10.007,0,0,0-1.888,5.419q0,2.537,1.87,2.537a4.774,4.774,0,0,0,2.658-1.053,10.584,10.584,0,0,0,2.658-2.813q.147-.276.348-.276a.181.181,0,0,1,.2.207q0,.966-2.548,3.037t-4.381,2.071q-2.163,0-2.163-3.279a10.575,10.575,0,0,1,2.273-5.816,23.043,23.043,0,0,1,5.352-5.505q3.079-2.243,5.315-2.243,2.933,0,2.933,4.107a14.291,14.291,0,0,1-1.906,6.679,27.4,27.4,0,0,1-4.637,6.351,29.272,29.272,0,0,1-5.847,4.642,11.039,11.039,0,0,1-5.462,1.864q-4.069,0-4.069-5.453a16.367,16.367,0,0,1,1.393-6.541,20.736,20.736,0,0,1,3.391-5.505,34.39,34.39,0,0,1,4.216-4.073,23.983,23.983,0,0,1,3.922-2.675A6.481,6.481,0,0,1,112.29-50.416Zm2.419,24.851a1.477,1.477,0,0,1-1.65-1.691q0-2.243,2.584-6.437a41.345,41.345,0,0,1,5.9-7.524q3.318-3.331,5.224-3.331.7,0,.7.932,0,1.45-2.584,4.729a60.953,60.953,0,0,1-5.554,6.144,36.954,36.954,0,0,1-4.582,3.935,7,7,0,0,0-.073.742,2.908,2.908,0,0,0,.037.431,1.662,1.662,0,0,0,.293.621.963.963,0,0,0,.861.38,6.611,6.611,0,0,0,2.144-.673,25.55,25.55,0,0,0,2.713-1.363l1.173-.69a.679.679,0,0,1,.037.276q0,.207-.33.345Q116.652-25.565,114.709-25.565Zm11.437-17.223q-.037-.759-.477-.759-1.136,0-3.446,2.416a38.349,38.349,0,0,0-4.472,5.781,21.97,21.97,0,0,0-2.823,5.781q1.54-1.174,3.959-3.452a50.224,50.224,0,0,0,4.766-5.212Q126-41.165,126.147-42.788Zm1.21,6.144q.55,0,.55.518a1.553,1.553,0,0,1-.513,1.053,1.549,1.549,0,0,1-1.136.535q-.513,0-.513-.673a1.19,1.19,0,0,1,.587-1.053A1.972,1.972,0,0,1,127.356-36.644Zm-3.446,4.556a.582.582,0,0,1,.513-.276.974.974,0,0,1,.66.311q0,.138-.477.621a18.441,18.441,0,0,0-1.613,2.157,5.724,5.724,0,0,0-1.136,2.226q0,.345.55.414a6.525,6.525,0,0,0,2.273-.673,25.553,25.553,0,0,0,2.713-1.363l1.173-.69a.68.68,0,0,1,.037.276q0,.207-.33.345-4.949,3.175-6.892,3.175-.953,0-.953-.9a5.209,5.209,0,0,1,1.045-2.5A23.99,23.99,0,0,1,123.911-32.088Zm4.179.38-.916.242q-.073,0-.073-.1,0-.311.825-.759a3.02,3.02,0,0,1,1.338-.449q.513,0,.513,2.071l-.22,3.348q.037-.035,2.456-2.537a38.307,38.307,0,0,1,4.2-3.848,5.407,5.407,0,0,1,3.024-1.346q.55.035.55.362t-.66.846a1.958,1.958,0,0,1-1.008.518q-.348,0-.422-.138t-.348-.138a2.073,2.073,0,0,0-.88.362,9.88,9.88,0,0,0-1.5,1.191q-.9.828-1.7,1.639T131.041-28.2q-1.411,1.432-2.474,2.468a.856.856,0,0,1-.495.242q-.2,0-.2-.138a25.847,25.847,0,0,0,.55-5.246v-.656A.365.365,0,0,0,128.09-31.708Zm13.784-4.936q.55,0,.55.518a1.553,1.553,0,0,1-.513,1.053,1.549,1.549,0,0,1-1.136.535q-.513,0-.513-.673a1.19,1.19,0,0,1,.587-1.053A1.972,1.972,0,0,1,141.873-36.644Zm-3.446,4.556a.582.582,0,0,1,.513-.276.974.974,0,0,1,.66.311q0,.138-.477.621a18.448,18.448,0,0,0-1.613,2.157,5.724,5.724,0,0,0-1.136,2.226q0,.345.55.414a6.525,6.525,0,0,0,2.273-.673,25.548,25.548,0,0,0,2.713-1.363l1.173-.69a.68.68,0,0,1,.037.276q0,.207-.33.345-4.949,3.175-6.892,3.175-.953,0-.953-.9a5.209,5.209,0,0,1,1.045-2.5A24,24,0,0,1,138.427-32.088Zm5.645,2.623q-2.2,0-2.2-.9,0-1.07,2.6-2.537a9.764,9.764,0,0,1,4.692-1.467q1.063,0,1.063.621,0,.345-.55.759a6.113,6.113,0,0,1-1.063.656,3.055,3.055,0,0,1-.587.242.287.287,0,0,1-.293-.173q-.073-.242.385-.5t.458-.57q0-.311-.825-.311a5.912,5.912,0,0,0-2.584,1.087q-1.76,1.087-1.76,1.778,0,.518,1.283.518.22,0,.807-.035t.587.138a6.783,6.783,0,0,1-1.815,1.243q-1.815,1.07-1.815,1.829,0,.863,1.191.863a7.517,7.517,0,0,0,2.694-.587,37.789,37.789,0,0,0,4.4-2.14l.7-.414a.679.679,0,0,1,.037.276q0,.207-.33.345a41.721,41.721,0,0,1-4.252,2.364,9.686,9.686,0,0,1-4.161,1.122q-1.851,0-1.851-1.156T144.073-29.465Zm6.562,1.035a.649.649,0,0,1-.275.069q-.128,0-.128-.138a.322.322,0,0,1,.11-.242,14.428,14.428,0,0,0,3.3-2.589q-1.65-.483-1.65-1.363a2.91,2.91,0,0,1,1.246-1.967,3.687,3.687,0,0,1,2.346-1.087q.733,0,.733.828a4.16,4.16,0,0,1-1.356,2.727q1.76.276,1.76.794a1.147,1.147,0,0,1-.641,1.053,6.458,6.458,0,0,0-1.485,1.294,2.8,2.8,0,0,0-.843,1.864.573.573,0,0,0,.147.38.82.82,0,0,0,.623.173,6.912,6.912,0,0,0,2.016-.673,25.555,25.555,0,0,0,2.713-1.363l1.173-.69a.68.68,0,0,1,.037.276q0,.207-.33.345-4.949,3.175-6.892,3.175-.953,0-.953-.9a2.749,2.749,0,0,1,.532-1.519,5.845,5.845,0,0,1,1.173-1.312q.642-.518,1.173-.984t.532-.6q0-.138-.458-.173a11.335,11.335,0,0,1-1.191-.173A16.135,16.135,0,0,1,150.634-28.429Zm2.273-4.8q0,.69,1.613.966a3.181,3.181,0,0,0,.953-1.916q0-.811-.55-.811a2.16,2.16,0,0,0-1.283.6A1.622,1.622,0,0,0,152.907-33.227Z" transform="translate(72.302 244.023)" fill="#fff"/>
  </g>
</svg>
