<svg xmlns="http://www.w3.org/2000/svg" width="253.039" height="59.96" viewBox="0 0 253.039 59.96">
  <path id="Path_3" data-name="Path 3" d="M39.33-16.893q0,2.071-2.99,2.762-.169,0-.169-.212t.395-.478a2.2,2.2,0,0,0,1.128-1.753q0-1.859-3.159-2.709a31.336,31.336,0,0,1-11.592,8.019A34.016,34.016,0,0,1,9.773-8.077q-5.753,0-5.753-2.231,0-1.859,3.92-4.435a40.621,40.621,0,0,1,10.1-4.514,38.962,38.962,0,0,1,11.648-1.938,24.705,24.705,0,0,1,4.625.372,11.72,11.72,0,0,0,1.749-6.108,3.707,3.707,0,0,0-1.749-3.107,7.9,7.9,0,0,0-4.682-1.248,14.255,14.255,0,0,0-5.584,1.115,1.823,1.823,0,0,1-.9.372q-.62,0-.62-.292t.846-.717a22.361,22.361,0,0,0,4.766-2.868,45.512,45.512,0,0,0,6.882-6.081q3.356-3.585,3.356-6.028,0-3.983-9.138-3.983A42.479,42.479,0,0,0,15.555-47.3,40.216,40.216,0,0,0,3.343-40.872q-4.964,3.957-4.964,7.727,0,2.018,2.651,2.018a16.894,16.894,0,0,0,7.446-1.779,57.32,57.32,0,0,0,9.589-6.453q.733-.8,1.015-.8.62,0,.62.372a3.036,3.036,0,0,1-.395.744,47.27,47.27,0,0,1-4.118,3.346A56.322,56.322,0,0,1,10.281-32.4a32.328,32.328,0,0,1-5.1,2.39A14.935,14.935,0,0,1,.015-28.949q-4,0-4-3.346,0-4.355,6.035-8.949a50.875,50.875,0,0,1,14.186-7.435A44.915,44.915,0,0,1,30.813-51.52q10.21,0,10.21,4.727,0,3.452-4.879,8.152a32.912,32.912,0,0,1-8.771,6.453,18.305,18.305,0,0,1,3.272-.319,9.861,9.861,0,0,1,5.471,1.275,3.95,3.95,0,0,1,1.918,3.452A12.406,12.406,0,0,1,35.494-20.5Q39.33-19.442,39.33-16.893ZM29.064-19.92a32.81,32.81,0,0,0-9.7,1.7,42.5,42.5,0,0,0-9.053,3.877q-3.638,2.177-3.638,3.532T10.14-9.458a31.613,31.613,0,0,0,7.615-1.036,38.468,38.468,0,0,0,8.687-3.452,20.905,20.905,0,0,0,6.966-5.6A25.369,25.369,0,0,0,29.064-19.92Zm.62-26.448q0,.159-6.571,10.834T13.44-19.973A2.258,2.258,0,0,1,12.2-18.911a4.016,4.016,0,0,1-1.382.372q-.479,0-.479-.239t4.174-6.851q4.174-6.612,8.32-13.144t4.033-6.586a2.047,2.047,0,0,1,1.128-.8l1.41-.425ZM50.555-28.63q.846,0,.846.8a2.39,2.39,0,0,1-.79,1.62,2.383,2.383,0,0,1-1.749.823q-.79,0-.79-1.036a1.831,1.831,0,0,1,.9-1.62A3.034,3.034,0,0,1,50.555-28.63Zm-5.3,7.01a.9.9,0,0,1,.79-.425,1.5,1.5,0,0,1,1.015.478q0,.212-.733.956a28.381,28.381,0,0,0-2.482,3.319q-1.749,2.576-1.749,3.426,0,.531.846.637a10.04,10.04,0,0,0,3.5-1.036,39.315,39.315,0,0,0,4.174-2.1l1.805-1.062a1.045,1.045,0,0,1,.056.425q0,.319-.508.531-7.615,4.886-10.6,4.886-1.467,0-1.467-1.381a8.015,8.015,0,0,1,1.608-3.85A36.917,36.917,0,0,1,45.253-21.62Zm5.923,5.63a1,1,0,0,1-.423.106q-.2,0-.2-.212a.5.5,0,0,1,.169-.372A22.2,22.2,0,0,0,55.8-20.451q-2.538-.744-2.538-2.1t1.918-3.027a5.672,5.672,0,0,1,3.61-1.673q1.128,0,1.128,1.275a6.4,6.4,0,0,1-2.087,4.2q2.708.425,2.708,1.222a1.765,1.765,0,0,1-.987,1.62,9.937,9.937,0,0,0-2.284,1.992,4.311,4.311,0,0,0-1.3,2.868.882.882,0,0,0,.226.584,1.262,1.262,0,0,0,.959.266,10.635,10.635,0,0,0,3.1-1.036,39.315,39.315,0,0,0,4.174-2.1l1.805-1.062a1.045,1.045,0,0,1,.056.425q0,.319-.508.531-7.615,4.886-10.6,4.886-1.467,0-1.467-1.381a4.229,4.229,0,0,1,.818-2.337,8.992,8.992,0,0,1,1.805-2.018q.987-.8,1.805-1.514t.818-.929q0-.212-.705-.266a17.441,17.441,0,0,1-1.833-.266A24.826,24.826,0,0,1,51.175-15.99Zm3.5-7.382q0,1.062,2.482,1.487a4.894,4.894,0,0,0,1.467-2.948q0-1.248-.846-1.248a3.324,3.324,0,0,0-1.974.929A2.5,2.5,0,0,0,54.673-23.372Zm24.255.319a3.267,3.267,0,0,1-1.467,2.284,4.356,4.356,0,0,1-2.115,1.222q-.649,0-.649-.319l.395-.478q1.41-1.222,1.41-1.806,0-.744-.846-.744-2.031.053-5.641,3.4t-3.61,4.939q0,.69.818.69a5.74,5.74,0,0,0,2.284-.717,19.463,19.463,0,0,0,2.538-1.46l1.128-.744a3.876,3.876,0,0,0,.62-.637q1.241-1.434,1.636-1.434.9.106.9.744Q74.866-16.1,70.861-9.776a17.342,17.342,0,0,1,2.313-.159q2.708,0,2.708,1.328a3.2,3.2,0,0,1-1.044,1.885Q73.794-5.581,73.23-5.581t-.564-.372q0-.212.62-.664a1.319,1.319,0,0,0,.62-1.089q0-.85-1.185-.85a16.946,16.946,0,0,0-2.764.266Q67.477-4.253,66.039-2T62.457,3.076Q58.4,8.44,55.293,8.44a1.67,1.67,0,0,1-1.918-1.859q0-3.293,4.766-8.6a24.1,24.1,0,0,1,10.576-7.17l3.159-5.63a21.859,21.859,0,0,1-2.313,1.168,13.194,13.194,0,0,1-4.4,1.434,1.33,1.33,0,0,1-1.523-1.487q0-1.487,2.425-4.036a27.053,27.053,0,0,1,5.753-4.541,11.517,11.517,0,0,1,5.528-1.992,1.765,1.765,0,0,1,1.072.292A1.4,1.4,0,0,1,78.927-23.054ZM55.293,5.784q0,1.115.9,1.115,2.877,0,11.62-14.6a19.762,19.762,0,0,0-8.828,6.32Q55.293,3.129,55.293,5.784ZM89.024-28.63q.846,0,.846.8a2.39,2.39,0,0,1-.79,1.62,2.383,2.383,0,0,1-1.749.823q-.79,0-.79-1.036a1.831,1.831,0,0,1,.9-1.62A3.034,3.034,0,0,1,89.024-28.63Zm-5.3,7.01a.9.9,0,0,1,.79-.425,1.5,1.5,0,0,1,1.015.478q0,.212-.733.956a28.381,28.381,0,0,0-2.482,3.319q-1.749,2.576-1.749,3.426,0,.531.846.637a10.04,10.04,0,0,0,3.5-1.036,39.316,39.316,0,0,0,4.174-2.1l1.805-1.062a1.045,1.045,0,0,1,.056.425q0,.319-.508.531-7.615,4.886-10.6,4.886-1.467,0-1.467-1.381a8.015,8.015,0,0,1,1.608-3.85A36.918,36.918,0,0,1,83.722-21.62Zm6.769-8.338q3.836,0,7.558-.053,6.035-7.276,8.235-7.276a.7.7,0,0,1,.79.8q0,2.549-3.948,6.373l4.287-.053q4.287-.159,5.246-.159t.959.212q0,1.009-1.467,1.062l-10.6.425a63.942,63.942,0,0,1-6.825,5.152q-4.287,6.639-4.287,9.029,0,1.222,1.664,1.222a14.49,14.49,0,0,0,5.274-1.7l4.569-2.5A1.045,1.045,0,0,1,102-17q0,.319-.508.531-1.805,1.168-3.948,2.337-4.569,2.177-6.994,2.177a3.071,3.071,0,0,1-1.749-.425,1.361,1.361,0,0,1-.677-.85l-.113-.425q0-1.806,2.595-6.081a84.257,84.257,0,0,1,6.148-8.736q-2.708.106-5.133.106T89.193-28.9Q89.193-29.9,90.491-29.958Zm14.835-5.417q0-.266-.226-.266-1.3,0-5.753,5.576h2.82Q105.326-33.3,105.326-35.375Zm-4.738,6.8q-1.805,0-2.425.053-.508.69-1.41,2.018T95.511-24.7A57.7,57.7,0,0,0,100.587-28.577Zm39.033,16.782q1.015.531,1.015.956a.77.77,0,0,1-.733.85h-.282q-3.159-.478-6.769-4.567a25.439,25.439,0,0,1-14.44,4.886,11.14,11.14,0,0,1-7.051-2.071,6.985,6.985,0,0,1-2.651-5.842,12.673,12.673,0,0,1,4-8.922,46.78,46.78,0,0,1,8.743-6.851q1.185-.744,3.272-2.018a20.111,20.111,0,0,1,1.3-6.586l.395-.85a11.973,11.973,0,0,1,2.284-3.213,7.588,7.588,0,0,1,2.623-1.779,10.03,10.03,0,0,1,3.5-.85,2.182,2.182,0,0,1,2.143,1.328,3.661,3.661,0,0,1,.282,1.646,5.581,5.581,0,0,1-.818,2.6A12.189,12.189,0,0,1,133.839-40a38.95,38.95,0,0,1-3.3,2.682q-1.523,1.089-4.23,2.948a21.922,21.922,0,0,0,1.41,6.9,5.208,5.208,0,0,0,.226.8,17.456,17.456,0,0,1,8.179-2.5,7.092,7.092,0,0,1,2.087.372,3.093,3.093,0,0,1,2.313,3.24q0,5.1-6.092,9.825A16.148,16.148,0,0,0,139.621-11.795Zm-11.112-9.082a29.657,29.657,0,0,1-1.749-3.558,9.541,9.541,0,0,0-3.666,5.258q-.169.744-.79.744-.79,0-.79-1.222,0-2.868,4.795-6a26.235,26.235,0,0,1-1.579-7.7q-3.1,2.071-5.02,3.558a45.162,45.162,0,0,0-4.061,3.611q-4.343,4.2-4.343,9.082,0,6.267,7.84,6.267a21.227,21.227,0,0,0,6.12-1.222,29.75,29.75,0,0,0,6.966-3.24,31.976,31.976,0,0,1-3.272-4.78Zm9.984-3.611a5.244,5.244,0,0,0-.113-1.036,2.861,2.861,0,0,0-1.044-1.354,3.913,3.913,0,0,0-2.623-.8A13.162,13.162,0,0,0,128.4-25.55a34.639,34.639,0,0,0,5.471,9.135Q138.493-20.133,138.493-24.488Zm-2.708-21.3a1.568,1.568,0,0,0-.367-1.062,2.26,2.26,0,0,0-1.156-.637q-3.441,0-5.81,3.718a15.632,15.632,0,0,0-2.087,7.435,52.957,52.957,0,0,0,7.051-5.045A6.011,6.011,0,0,0,135.785-45.784Zm39.146-4.036a.406.406,0,0,1,.395.319q0,.425-.677.531a23.675,23.675,0,0,0-6.741,3.665,40.947,40.947,0,0,0-6.769,6.4,33.073,33.073,0,0,0-5.3,8.843,26.679,26.679,0,0,0-2.115,10.3q0,7.063,5.3,7.063,3.1,0,7.248-2.576a38.272,38.272,0,0,0,7.784-6.479,36.76,36.76,0,0,0,6.176-9.161,23.246,23.246,0,0,0,2.538-10.117q0-4.859-3.554-4.859-2.877,0-6.769,2.894a28.414,28.414,0,0,0-6.8,7.329,15.4,15.4,0,0,0-2.9,8.338q0,3.9,2.877,3.9a7.345,7.345,0,0,0,4.089-1.62,16.286,16.286,0,0,0,4.089-4.328q.226-.425.536-.425a.278.278,0,0,1,.31.319q0,1.487-3.92,4.674t-6.741,3.187q-3.328,0-3.328-5.045,0-3.93,3.5-8.949a35.457,35.457,0,0,1,8.235-8.471q4.738-3.452,8.179-3.452,4.513,0,4.513,6.32a21.99,21.99,0,0,1-2.933,10.277,42.156,42.156,0,0,1-7.135,9.772,45.041,45.041,0,0,1-9,7.143q-4.795,2.868-8.4,2.868-6.261,0-6.261-8.391A25.184,25.184,0,0,1,153.5-29.613a31.906,31.906,0,0,1,5.218-8.471A52.918,52.918,0,0,1,165.2-44.35a36.9,36.9,0,0,1,6.035-4.116A9.973,9.973,0,0,1,174.931-49.821Zm3.723,38.238a2.272,2.272,0,0,1-2.538-2.6q0-3.452,3.977-9.9a63.621,63.621,0,0,1,9.081-11.578q5.1-5.125,8.038-5.125,1.072,0,1.072,1.434,0,2.231-3.977,7.276a93.788,93.788,0,0,1-8.546,9.453,56.863,56.863,0,0,1-7.051,6.054,10.77,10.77,0,0,0-.113,1.142,4.477,4.477,0,0,0,.056.664,2.557,2.557,0,0,0,.451.956,1.482,1.482,0,0,0,1.326.584,10.173,10.173,0,0,0,3.3-1.036,39.314,39.314,0,0,0,4.174-2.1l1.805-1.062a1.045,1.045,0,0,1,.056.425q0,.319-.508.531Q181.643-11.582,178.654-11.582Zm17.6-26.5q-.056-1.168-.733-1.168-1.749,0-5.3,3.718a59.006,59.006,0,0,0-6.882,8.9,33.8,33.8,0,0,0-4.343,8.9q2.369-1.806,6.092-5.311a77.282,77.282,0,0,0,7.333-8.019Q196.027-35.587,196.253-38.083Zm1.861,9.453q.846,0,.846.8a2.39,2.39,0,0,1-.79,1.62,2.383,2.383,0,0,1-1.749.823q-.79,0-.79-1.036a1.831,1.831,0,0,1,.9-1.62A3.034,3.034,0,0,1,198.114-28.63Zm-5.3,7.01a.9.9,0,0,1,.79-.425,1.5,1.5,0,0,1,1.015.478q0,.212-.733.956a28.379,28.379,0,0,0-2.482,3.319q-1.749,2.576-1.749,3.426,0,.531.846.637a10.04,10.04,0,0,0,3.5-1.036,39.314,39.314,0,0,0,4.174-2.1l1.805-1.062a1.045,1.045,0,0,1,.056.425q0,.319-.508.531-7.615,4.886-10.6,4.886-1.467,0-1.467-1.381a8.015,8.015,0,0,1,1.608-3.85A36.918,36.918,0,0,1,192.812-21.62Zm6.43.584-1.41.372q-.113,0-.113-.159,0-.478,1.269-1.168a4.648,4.648,0,0,1,2.059-.69q.79,0,.79,3.187l-.338,5.152q.056-.053,3.779-3.9a58.944,58.944,0,0,1,6.459-5.922q2.736-2.071,4.654-2.071.846.053.846.558t-1.015,1.3a3.014,3.014,0,0,1-1.551.8q-.536,0-.649-.212t-.536-.212a3.19,3.19,0,0,0-1.354.558,15.2,15.2,0,0,0-2.313,1.832q-1.382,1.275-2.623,2.523t-3.413,3.452q-2.172,2.2-3.807,3.8a1.316,1.316,0,0,1-.761.372q-.31,0-.31-.212a39.767,39.767,0,0,0,.846-8.073V-20.77A.562.562,0,0,0,199.242-21.035Zm21.209-7.595q.846,0,.846.8a2.39,2.39,0,0,1-.79,1.62,2.383,2.383,0,0,1-1.749.823q-.79,0-.79-1.036a1.831,1.831,0,0,1,.9-1.62A3.034,3.034,0,0,1,220.451-28.63Zm-5.3,7.01a.9.9,0,0,1,.79-.425,1.5,1.5,0,0,1,1.015.478q0,.212-.733.956a28.381,28.381,0,0,0-2.482,3.319q-1.749,2.576-1.749,3.426,0,.531.846.637a10.04,10.04,0,0,0,3.5-1.036,39.317,39.317,0,0,0,4.174-2.1l1.8-1.062a1.045,1.045,0,0,1,.056.425q0,.319-.508.531-7.615,4.886-10.6,4.886-1.467,0-1.467-1.381a8.015,8.015,0,0,1,1.608-3.85A36.916,36.916,0,0,1,215.149-21.62Zm8.687,4.036q-3.384,0-3.384-1.381,0-1.646,4-3.9a15.023,15.023,0,0,1,7.22-2.257q1.636,0,1.636.956,0,.531-.846,1.168a9.408,9.408,0,0,1-1.636,1.009,4.7,4.7,0,0,1-.9.372.441.441,0,0,1-.451-.266q-.113-.372.592-.77t.705-.876q0-.478-1.269-.478a9.1,9.1,0,0,0-3.977,1.673q-2.708,1.673-2.708,2.735,0,.8,1.974.8.338,0,1.241-.053t.9.212q0,.266-2.792,1.912t-2.792,2.815q0,1.328,1.833,1.328a11.567,11.567,0,0,0,4.146-.9,58.148,58.148,0,0,0,6.769-3.293l1.072-.637a1.045,1.045,0,0,1,.056.425q0,.319-.508.531a64.2,64.2,0,0,1-6.543,3.638,14.9,14.9,0,0,1-6.4,1.726q-2.849,0-2.849-1.779T223.835-17.583Zm10.1,1.593a1,1,0,0,1-.423.106q-.2,0-.2-.212a.5.5,0,0,1,.169-.372,22.2,22.2,0,0,0,5.077-3.983q-2.538-.744-2.538-2.1t1.918-3.027a5.673,5.673,0,0,1,3.61-1.673q1.128,0,1.128,1.275a6.4,6.4,0,0,1-2.087,4.2q2.708.425,2.708,1.222a1.765,1.765,0,0,1-.987,1.62,9.936,9.936,0,0,0-2.284,1.992,4.311,4.311,0,0,0-1.3,2.868.882.882,0,0,0,.226.584,1.262,1.262,0,0,0,.959.266,10.635,10.635,0,0,0,3.1-1.036,39.312,39.312,0,0,0,4.174-2.1l1.805-1.062a1.045,1.045,0,0,1,.056.425q0,.319-.508.531-7.615,4.886-10.6,4.886-1.467,0-1.467-1.381a4.229,4.229,0,0,1,.818-2.337,8.993,8.993,0,0,1,1.8-2.018q.987-.8,1.805-1.514t.818-.929q0-.212-.705-.266a17.441,17.441,0,0,1-1.833-.266A24.826,24.826,0,0,1,233.932-15.99Zm3.5-7.382q0,1.062,2.482,1.487a4.894,4.894,0,0,0,1.467-2.948q0-1.248-.846-1.248a3.324,3.324,0,0,0-1.974.929A2.5,2.5,0,0,0,237.429-23.372Z" transform="translate(3.99 51.52)" fill="#fff"/>
</svg>
