<svg xmlns="http://www.w3.org/2000/svg" xmlns:xlink="http://www.w3.org/1999/xlink" width="308" height="44" viewBox="0 0 308 44">
  <defs>
    <clipPath id="clip-path">
      <rect id="Rectangle_7" data-name="Rectangle 7" width="308" height="44" transform="translate(47 528)" fill="none"/>
    </clipPath>
    <clipPath id="clip-path-2">
      <path id="Path_7" data-name="Path 7" d="M464.31,362.17H901.84v44.07H464.31Z" transform="translate(-532.96 -371.32)"/>
    </clipPath>
  </defs>
  <g id="Mask_Group_2" data-name="Mask Group 2" transform="translate(-47 -528)" clip-path="url(#clip-path)">
    <g id="logo" transform="translate(50.65 537.15)" clip-path="url(#clip-path-2)">
      <path id="Path_6" data-name="Path 6" d="M811.22,372v.35h.44a2.23,2.23,0,0,1,2.24,2.2V394a2.24,2.24,0,0,1-2.24,2.18h-.44v.35h7.65v-.35h-.44a2.24,2.24,0,0,1-2.24-2.2v-20.9c.45,0,2.57-.07,4.36,0,2.6.14,4.25,2.17,4.34,5.33a7.468,7.468,0,0,1-.22,2.1c-1,3.15-3.65,3.58-5.47,3.63h-1.85v.33c1.28,0,2.3,1.21,3.22,2.36.27.34,4.21,6.08,4.61,6.55a7.52,7.52,0,0,0,6.11,3.07h1.92v-.35c-2.06,0-3.36-1.11-4.76-2.65s-4.38-5.79-4.38-5.79a8.64,8.64,0,0,0-2.5-2.46c3.36,0,5.94-3.28,5.94-6.67,0-4.08-2.6-6.58-6.84-6.58Zm-3.29,18.85h-.35c-1.08,2.66-2.51,4.58-6.22,4.58h-5v-10.5h6a1.73,1.73,0,0,1,1.65,1.73v.51h.34v-5.54H804v.52a1.72,1.72,0,0,1-1.69,1.72h-5.92V373.06h7.14a2.09,2.09,0,0,1,2,2.08v.63h.35v-4.42a14.7,14.7,0,0,1-4.17.64H791.39v.35h.44a2.24,2.24,0,0,1,2.23,2v19.6a2.24,2.24,0,0,1-2.24,2.2h-.44v.35h14.51Zm-20.73,5.3h-.44a2.25,2.25,0,0,1-2.25-2.2V374.52a2.25,2.25,0,0,1,2.25-2.18h.44V372h-7.65v.35H780a2.24,2.24,0,0,1,2.24,2.18v19.42a2.25,2.25,0,0,1-2.24,2.2h-.45v.35h7.66ZM770.76,372v.35h.31a1.48,1.48,0,0,1,1.33,2.18l-7.62,18.34-7.33-18.34a1.47,1.47,0,0,1,1.32-2.18h.31V372H751.2v.35h.28a3.46,3.46,0,0,1,3.09,2.19L764.4,397h.32a18.441,18.441,0,0,1,1.29-3.6l8.42-18.87a3.45,3.45,0,0,1,3.06-2.17h.31V372Zm-21.29,24.15H749a2.23,2.23,0,0,1-2.24-2.2V374.52a2.24,2.24,0,0,1,2.24-2.18h.44V372h-7.66v.35h.45a2.24,2.24,0,0,1,2.24,2.18v19.42a2.24,2.24,0,0,1-2.24,2.2h-.45v.35h7.66Zm-10.6-5.3c-1.08,2.66-2.5,4.58-6.21,4.58h-5V374.54a2.24,2.24,0,0,1,2.24-2.2h.44V372h-7.66v.35h.44a2.23,2.23,0,0,1,2.24,2.2v19.4a2.23,2.23,0,0,1-2.24,2.2h-.44v.35h14.51l2-5.65ZM707,395.93c-5.94,0-9.89-4.67-9.89-11.69S701,372.55,707,372.55s9.9,4.68,9.9,11.69-4,11.69-9.9,11.69m0-24.43c-7.44,0-12.58,5.1-12.58,12.74S699.53,397,707,397s12.58-5.1,12.58-12.74S714.42,371.5,707,371.5m-23.38,11.69a.27.27,0,0,0-.42.12,11.594,11.594,0,0,1-1,1.35,8.579,8.579,0,0,1-1.26,1.17,4.47,4.47,0,0,1-3.13.81,2.93,2.93,0,0,1-1.46-.54,3.44,3.44,0,0,1-1-1.22s-.25-.54-.65-1.53a5.635,5.635,0,0,0-.47-.81,1.75,1.75,0,0,0-.33-.45,1.22,1.22,0,0,0-.7-.36,1.24,1.24,0,0,0-.47,0l-.33.09a4.386,4.386,0,0,0-.46.27c-.19.15-.43.36-.71.63s-.38.43-.68.74L670,384c-.13.12-.26.25-.4.4s-.29.3-.45.45l-.42.41c-.65.66-1.06,1-1.21,1.17l-.1.09h.19a.241.241,0,0,1,.12,0,.17.17,0,0,1,.07.14v.05l.14-.36.33-.81.61-1.62,1.26-3.24a.63.63,0,0,0-1.17-.45c-.25.57-.44,1-.56,1.22a2.758,2.758,0,0,1-.33.54l-.38.58a.51.51,0,0,0,.14.83.58.58,0,0,0,.89-.15l.42-.59a4.44,4.44,0,0,0,.38-.67c.15-.27.36-.69.61-1.26l-1.17-.41c-.22,1-.52,2.09-.89,3.29-.07.3-.22.84-.47,1.62l-.28.81-.14.45a1.654,1.654,0,0,0-.05.22V387a.32.32,0,0,0,.14.14.561.561,0,0,0,.14.09h.24a.14.14,0,0,1,.09-.05A1,1,0,0,0,668,387c.16-.15.57-.57,1.22-1.26a12.452,12.452,0,0,1,1.26-1.21,10.908,10.908,0,0,1,1.36-1,3.417,3.417,0,0,1,.7-.4l.33-.14a.12.12,0,0,1,.09,0v.05a1.441,1.441,0,0,1,.19.22c.06.09.19.32.37.68a13.933,13.933,0,0,0,.89,1.57,4.459,4.459,0,0,0,1.41,1.31,4,4,0,0,0,1.87.54,5.34,5.34,0,0,0,1.87-.23,5.549,5.549,0,0,0,1.64-.81,8.381,8.381,0,0,0,1.36-1.21,13.806,13.806,0,0,0,1.07-1.4h.05a.29.29,0,0,0-.14-.43m-25.69-2.31.18-.05a.26.26,0,0,1,.14.23,1.248,1.248,0,0,1,0,.31,3.128,3.128,0,0,0-.14.36,2.471,2.471,0,0,1-.47.63,3.34,3.34,0,0,1-1.45.86,6.358,6.358,0,0,1-1.13.18.57.57,0,0,1,.14-.27,4.46,4.46,0,0,1,2.44-2.16.751.751,0,0,1,.33-.09m9.45,2.43a16.67,16.67,0,0,1-6.18,4.05,8.9,8.9,0,0,1-3.6.4,3.31,3.31,0,0,1-1.55-.49,2.73,2.73,0,0,1-1-1.13,1.78,1.78,0,0,1-.23-.67,2.462,2.462,0,0,1,0-.81,4.258,4.258,0,0,1,0-.59,5.521,5.521,0,0,0,1.59-.13,4.2,4.2,0,0,0,1.87-.95,2.661,2.661,0,0,0,.71-.81c.06-.12.14-.28.23-.49a1.53,1.53,0,0,0,.14-.59,1.34,1.34,0,0,0-.19-.72,1.45,1.45,0,0,0-.61-.54,2.2,2.2,0,0,0-.79,0,2.331,2.331,0,0,0-.56.13,5.44,5.44,0,0,0-1.83,1.08,5.849,5.849,0,0,0-1.31,1.58,4.831,4.831,0,0,0-.56,2v1a3,3,0,0,0,.37,1,3.51,3.51,0,0,0,1.5,1.58,2.391,2.391,0,0,0,.56.27l.51.13a6.059,6.059,0,0,0,1,.09,10.09,10.09,0,0,0,3.94-.81,15.723,15.723,0,0,0,3.37-1.84,18.8,18.8,0,0,0,1.54-1.13c.25-.18.75-.58,1.5-1.21a.28.28,0,0,0,0-.45.3.3,0,0,0-.47,0M628.76,372a15.489,15.489,0,0,1-4.22-.64v4.4h.35v-.62a2.08,2.08,0,0,1,2-2.08h6.64v21a2.25,2.25,0,0,1-2.24,2.14h-.45v.35h7.66v-.35h-.44a2.24,2.24,0,0,1-2.24-2.17V373h6.63a2.08,2.08,0,0,1,2,2.08v.62h.35v-4.4a15.4,15.4,0,0,1-4.21.64Zm-7,24.18h-.44a2.23,2.23,0,0,1-2.24-2.2V374.52a2.24,2.24,0,0,1,2.24-2.18h.44V372H614.1v.35h.44a2.24,2.24,0,0,1,2.24,2.18v19.42a2.24,2.24,0,0,1-2.24,2.2h-.44v.35h7.66Zm-9.72-11v-.35h-6.86v.35h.55c1.13,0,1.8.58,1.8,1.6v6.2a11.68,11.68,0,0,1-7.9,3c-5.93,0-10-4.71-10-11.7s4-11.69,10-11.69c4.63,0,7.83,2.25,8.89,6.26h.29l-.7-4.94a14.84,14.84,0,0,0-8.49-2.37c-7.43,0-12.57,5.1-12.57,12.74S592.19,397,599.63,397c5.26,0,8.53-2.39,10.13-4.51v-5.78c0-1,.62-1.59,1.75-1.59ZM564.94,372v.35h.44a2.25,2.25,0,0,1,2.25,2.2V394a2.25,2.25,0,0,1-2.24,2.18h-.45v.35h7.64v-.35h-.45a2.25,2.25,0,0,1-2.24-2.2v-20.9c.46,0,2.58-.07,4.36,0,2.61.14,4.26,2.17,4.34,5.33a7.47,7.47,0,0,1-.22,2.1c-1,3.15-3.65,3.58-5.46,3.63h-1.85v.33c1.28,0,2.3,1.21,3.21,2.36.27.34,4.21,6.08,4.61,6.55a7.52,7.52,0,0,0,6.11,3.07h1.92v-.35c-2.06,0-3.35-1.11-4.76-2.65s-4.37-5.79-4.37-5.79a8.659,8.659,0,0,0-2.51-2.46c3.37,0,6-3.28,6-6.67,0-4.08-2.6-6.58-6.84-6.58Zm-4.18,24.15h-.45a2.25,2.25,0,0,1-2.24-2.2V374.52a2.25,2.25,0,0,1,2.24-2.18h.45V372h-7.65v.35h.44a2.25,2.25,0,0,1,2.25,2.18v19.42a2.25,2.25,0,0,1-2.25,2.2h-.44v.35h7.65Zm-22.83-.92v-22.1h1.85c3.32,0,5.1,1.81,5.12,5,0,4.5-3.66,5.13-5.79,5.12v.33c3.38,0,7.9.87,7.9,6.11,0,3.54-2.07,5.57-5.66,5.56ZM533,372v.35h.44a2.22,2.22,0,0,1,2.25,2.17V394a2.25,2.25,0,0,1-2.24,2.18H533v.35h8.53c5.21,0,8.15-2.62,8.15-6.58a6.65,6.65,0,0,0-6-6.75,5.33,5.33,0,0,0,3.88-5.32c0-3.5-2.71-5.85-7.61-5.85Z" transform="translate(-532.96 -371.32)" fill="#fff"/>
    </g>
  </g>
</svg>
